<?xml version="1.0" encoding="UTF-8" standalone="no"?>
<!-- Created with Inkscape (http://www.inkscape.org/) -->

<svg
   xmlns:dc="http://purl.org/dc/elements/1.1/"
   xmlns:cc="http://creativecommons.org/ns#"
   xmlns:rdf="http://www.w3.org/1999/02/22-rdf-syntax-ns#"
   xmlns:svg="http://www.w3.org/2000/svg"
   xmlns="http://www.w3.org/2000/svg"
   xmlns:sodipodi="http://sodipodi.sourceforge.net/DTD/sodipodi-0.dtd"
   xmlns:inkscape="http://www.inkscape.org/namespaces/inkscape"
   width="4574.8765"
   height="818.06836"
   viewBox="0 0 1210.436 216.44726"
   version="1.1"
   id="svg23489"
   inkscape:version="0.48.5 r10040"
   sodipodi:docname="claw_slash.svg">
  <defs
     id="defs23483" />
  <sodipodi:namedview
     id="base"
     pagecolor="#ffffff"
     bordercolor="#666666"
     borderopacity="1.0"
     inkscape:pageopacity="0.0"
     inkscape:pageshadow="2"
     inkscape:zoom="0.14543457"
     inkscape:cx="1229.3244"
     inkscape:cy="-772.67899"
     inkscape:document-units="px"
     inkscape:current-layer="layer1"
     showgrid="false"
     inkscape:pagecheckerboard="false"
     showborder="true"
     units="px"
     inkscape:window-width="1920"
     inkscape:window-height="1017"
     inkscape:window-x="-8"
     inkscape:window-y="-8"
     inkscape:window-maximized="1"
     fit-margin-top="0"
     fit-margin-left="0"
     fit-margin-right="0"
     fit-margin-bottom="0">
    <inkscape:grid
       type="xygrid"
       id="grid24034"
       spacingx="2.6458333"
       spacingy="2.6458333"
       empspacing="10"
       visible="true"
       enabled="true"
       snapvisiblegridlinesonly="true"
       originx="1570.7932px"
       originy="-744.92874px" />
  </sodipodi:namedview>
  <metadata
     id="metadata23486">
    <rdf:RDF>
      <cc:Work
         rdf:about="">
        <dc:format>image/svg+xml</dc:format>
        <dc:type
           rdf:resource="http://purl.org/dc/dcmitype/StillImage" />
        <dc:title></dc:title>
        <cc:license
           rdf:resource="" />
        <dc:creator>
          <cc:Agent>
            <dc:title>Robert Brooks</dc:title>
          </cc:Agent>
        </dc:creator>
      </cc:Work>
    </rdf:RDF>
  </metadata>
  <g
     inkscape:label="Layer 1"
     inkscape:groupmode="layer"
     id="layer1"
     transform="translate(415.60571,116.543)">
    <g
       id="g18221"
       transform="matrix(3.624013,0,0,3.9529206,542.54428,-689.29002)"
       inkscape:export-filename="C:\Users\rober\Desktop\assets\ASSETS_2020\blood_effects_2\claw_slash\keyframes\claw_slash_03.png"
       inkscape:export-xdpi="90"
       inkscape:export-ydpi="90">
      <g
         id="g18039">
        <g
           id="g18000">
          <g
             id="g17964">
            <g
               id="g17894"
               transform="translate(-32.321084,8.3616734)">
              <g
                 transform="translate(-52.42126,0)"
                 id="g17868">
                <path
                   style="opacity:0;color:#000000;fill:#b80000;fill-opacity:1;fill-rule:nonzero;stroke:none;stroke-width:20;marker:none;visibility:visible;display:inline;overflow:visible;enable-background:accumulate"
                   d="m -128.2616,136.53044 25.69264,0 0,54.75629 -25.69264,0 z"
                   id="rect17846"
                   inkscape:connector-curvature="0"
                   sodipodi:nodetypes="ccccc" />
                <g
                   id="g17848">
                  <g
                     id="g17850">
                    <path
                       sodipodi:nodetypes="csssc"
                       inkscape:connector-curvature="0"
                       id="path17852"
                       d="m -124.62114,148.74112 c 4.82404,11.25607 6.03005,17.76855 6.67325,17.60773 0.64321,-0.16081 -0.98628,-9.3187 -2.17081,-12.62292 -1.52762,-4.26123 -4.66325,-8.76367 -6.19086,-10.37167 -1.52761,-1.60803 1.68842,5.38686 1.68842,5.38686 z"
                       style="color:#000000;fill:#550000;fill-opacity:1;fill-rule:nonzero;stroke:none;stroke-width:20;marker:none;visibility:visible;display:inline;overflow:visible;enable-background:accumulate" />
                    <path
                       transform="matrix(0.26458334,0,0,0.26458334,-5e-5,-1025.9167)"
                       inkscape:connector-curvature="0"
                       id="path17854"
                       d="m -468.85345,4436.6023 c 7.52056,13.537 18.90885,51.9993 18.04935,48.5614 -0.85949,-3.438 -3.65284,-23.851 -7.52056,-31.1567 -3.86772,-7.3056 -10.52879,-17.4047 -10.52879,-17.4047 z"
                       style="color:#000000;fill:#7d0000;fill-opacity:1;fill-rule:nonzero;stroke:none;stroke-width:20;marker:none;visibility:visible;display:inline;overflow:visible;enable-background:accumulate" />
                  </g>
                  <g
                     id="g17856">
                    <path
                       style="color:#000000;fill:#550000;fill-opacity:1;fill-rule:nonzero;stroke:none;stroke-width:20;marker:none;visibility:visible;display:inline;overflow:visible;enable-background:accumulate"
                       d="m -117.38508,150.75113 c 2.57282,5.30643 2.83368,7.69729 5.54764,16.08012 0.96481,-1.36682 0.42456,-8.9864 -2.97482,-17.36656 -2.73447,-6.74105 -6.35166,-9.88928 -7.87927,-11.49728 -1.52761,-1.60803 2.33163,4.90446 5.30645,12.78372 z"
                       id="path17858"
                       inkscape:connector-curvature="0"
                       sodipodi:nodetypes="ccssc" />
                    <path
                       transform="matrix(0.26458334,0,0,0.26458334,-5e-5,-1025.9167)"
                       inkscape:connector-curvature="0"
                       id="path17860"
                       d="m -457.58068,4410.1999 c 6.91287,11.0678 29.33827,68.5176 31.48701,77.7571 2.14873,9.2396 3.65284,13.537 2.3636,6.876 -1.28924,-6.6611 -6.01645,-35.4541 -12.46265,-49.6358 -6.44619,-14.1816 -10.8565,-20.4867 -13.43498,-26.0734 -2.57848,-5.5867 -14.12579,-19.8127 -7.95298,-8.9239 z"
                       style="color:#000000;fill:#7d0000;fill-opacity:1;fill-rule:nonzero;stroke:none;stroke-width:20;marker:none;visibility:visible;display:inline;overflow:visible;enable-background:accumulate"
                       sodipodi:nodetypes="cssssc" />
                  </g>
                  <g
                     id="g17862">
                    <path
                       sodipodi:nodetypes="ccscc"
                       inkscape:connector-curvature="0"
                       id="path17864"
                       d="m -112.31492,146.27218 c 3.13758,5.41906 4.27204,14.99692 4.63014,14.37331 0.35811,-0.62362 0.44652,-5.7118 -0.94283,-10.94613 -1.38933,-5.23432 -4.5651,-8.0555 -6.32792,-9.60676 -2.26294,-1.258 0.30899,2.56154 2.64061,6.17958 z"
                       style="color:#000000;fill:#550000;fill-opacity:1;fill-rule:nonzero;stroke:none;stroke-width:20;marker:none;visibility:visible;display:inline;overflow:visible;enable-background:accumulate" />
                    <path
                       inkscape:connector-curvature="0"
                       id="path17866"
                       d="m -113.53326,142.98824 c 2.61518,2.89946 4.43444,8.52778 4.94611,10.51761 0.51167,1.9898 -0.28426,-4.09334 -1.47815,-5.91259 -1.19389,-1.81928 -3.46796,-4.60502 -3.46796,-4.60502 z"
                       style="color:#000000;fill:#7d0000;fill-opacity:1;fill-rule:nonzero;stroke:none;stroke-width:20;marker:none;visibility:visible;display:inline;overflow:visible;enable-background:accumulate" />
                  </g>
                </g>
              </g>
            </g>
          </g>
        </g>
      </g>
    </g>
    <g
       id="g18239"
       transform="matrix(3.624013,0,0,3.9529206,554.91093,-689.29002)"
       inkscape:export-filename="C:\Users\rober\Desktop\assets\ASSETS_2020\blood_effects_2\claw_slash\keyframes\claw_slash_02.png"
       inkscape:export-xdpi="90"
       inkscape:export-ydpi="90">
      <g
         id="g18027">
        <g
           id="g17989">
          <g
             id="g17954">
            <g
               id="g17929">
              <g
                 transform="translate(-113.8474,8.3616734)"
                 id="g17881">
                <path
                   style="opacity:0;color:#000000;fill:#b80000;fill-opacity:1;fill-rule:nonzero;stroke:none;stroke-width:20;marker:none;visibility:visible;display:inline;overflow:visible;enable-background:accumulate"
                   d="m -128.2616,136.53044 25.69264,0 0,54.75629 -25.69264,0 z"
                   id="rect17844"
                   inkscape:connector-curvature="0"
                   sodipodi:nodetypes="ccccc" />
                <g
                   id="g17833">
                  <g
                     id="g17819" />
                  <g
                     id="g17823" />
                  <g
                     id="g17827" />
                </g>
              </g>
              <path
                 id="path17908"
                 transform="matrix(0.26458334,0,0,0.26458334,-5e-5,-1025.9167)"
                 d="m -893.875,4431.4375 c 3.43797,9.0246 18.48378,31.1663 22.78125,43.8437 4.29746,12.6775 8.8125,22.1178 8.8125,18.25 0,-3.8676 -5.81567,-22.9673 -11.1875,-33.2812 -5.37183,-10.3139 -20.40625,-28.8125 -20.40625,-28.8125 z m 26.21875,6.0313 c -1.28924,1.9338 12.03853,15.4518 15.90625,24.9062 3.86772,9.4544 7.9375,19.5669 7.9375,16.3438 0,-3.2232 -0.41693,-11.3811 -7.9375,-23.8438 -6.49714,-10.7666 -15.90625,-17.4062 -15.90625,-17.4062 z m -39.75,13.5312 c -2.79336,0.6446 7.96029,20.4011 12.6875,28.7812 4.72721,8.3801 9.48395,25.2307 8.78125,18.9063 -0.85949,-7.7355 -2.99154,-10.7168 -7.71875,-24.4687 -3.45036,-10.0375 -13.75,-23.2188 -13.75,-23.2188 z"
                 style="color:#000000;fill:#550000;fill-opacity:1;fill-rule:nonzero;stroke:none;stroke-width:20;marker:none;visibility:visible;display:inline;overflow:visible;enable-background:accumulate"
                 inkscape:connector-curvature="0" />
            </g>
          </g>
        </g>
      </g>
    </g>
    <g
       transform="matrix(3.624013,0,0,3.9529206,563.99224,-689.29002)"
       id="g18252"
       inkscape:export-filename="C:\Users\rober\Desktop\assets\ASSETS_2020\blood_effects_2\claw_slash\keyframes\claw_slash_01.png"
       inkscape:export-xdpi="90"
       inkscape:export-ydpi="90">
      <g
         id="g18016">
        <g
           id="g17979">
          <g
             id="g17945">
            <g
               transform="translate(-142.04593,8.3616734)"
               id="g17915">
              <path
                 style="opacity:0;color:#000000;fill:#b80000;fill-opacity:1;fill-rule:nonzero;stroke:none;stroke-width:20;marker:none;visibility:visible;display:inline;overflow:visible;enable-background:accumulate"
                 d="m -128.2616,136.53044 25.69264,0 0,54.75629 -25.69264,0 z"
                 id="rect17917"
                 inkscape:connector-curvature="0"
                 sodipodi:nodetypes="ccccc" />
              <g
                 id="g17919">
                <g
                   id="g17921" />
                <g
                   id="g17923" />
                <g
                   id="g17925" />
              </g>
            </g>
            <path
               inkscape:connector-curvature="0"
               style="color:#000000;fill:#550000;fill-opacity:1;fill-rule:nonzero;stroke:none;stroke-width:20;marker:none;visibility:visible;display:inline;overflow:visible;enable-background:accumulate"
               d="m -999.78125,4432.2188 c -0.37835,0.067 -0.43755,0.5937 -0.43755,0.5937 2.58302,4.862 7.15523,12.6078 8.2188,12 1.06356,-0.6077 -5.32006,-10.6326 -6.6875,-12 -0.51278,-0.5128 -0.86673,-0.6338 -1.09375,-0.5937 z m 26.84375,5.7187 c -0.50448,-0.044 -0.375,0.5 -0.375,0.5 2.88683,5.014 6.07437,9.5851 7.59375,9.2813 1.51938,-0.3038 -3.03774,-6.9892 -5.46875,-8.8126 -0.91163,-0.6836 -1.44731,-0.942 -1.75,-0.9687 z m -40.75,14.0313 c -0.2149,0.04 -0.3125,0.2187 -0.3125,0.2187 0.3223,3.9752 5.8182,13.752 7,13 1.1818,-0.7521 -4.5195,-11.7205 -5.5938,-12.6875 -0.5371,-0.4834 -0.8788,-0.5715 -1.0937,-0.5312 z"
               transform="matrix(0.26458334,0,0,0.26458334,-5e-5,-1025.9167)"
               id="path17938" />
          </g>
        </g>
      </g>
    </g>
    <g
       id="g18200"
       transform="matrix(3.624013,0,0,3.9529206,529.34222,-689.29002)"
       inkscape:export-filename="C:\Users\rober\Desktop\assets\ASSETS_2020\blood_effects_2\claw_slash\keyframes\claw_slash_04.png"
       inkscape:export-xdpi="90"
       inkscape:export-ydpi="90">
      <path
         transform="matrix(0.26458334,0,0,0.26458334,-5e-5,-1025.9167)"
         inkscape:connector-curvature="0"
         id="path18092"
         d="m -639.03307,4450.5691 c 1.50411,8.8098 6.87594,17.8345 8.8098,27.074 1.93386,9.2396 4.72721,20.6278 9.02468,26.4294 4.29746,5.8016 8.16518,-6.8759 4.94208,-25.355 -3.2231,-18.4791 -10.52879,-26.2146 -15.68575,-30.0823 -5.15695,-3.8677 -7.09081,1.9339 -7.09081,1.9339 z"
         style="color:#000000;fill:#f10000;fill-opacity:1;fill-rule:nonzero;stroke:none;stroke-width:20;marker:none;visibility:visible;display:inline;overflow:visible;enable-background:accumulate" />
      <path
         transform="matrix(0.26458334,0,0,0.26458334,-5e-5,-1025.9167)"
         inkscape:connector-curvature="0"
         id="path18088"
         d="m -684.63415,4459.8592 c -1.21551,8.3566 9.72405,37.3768 14.43414,45.1257 4.71009,7.7488 12.61088,8.6605 11.39537,-1.6713 -1.2155,-10.3318 -4.40621,-22.4869 -12.61088,-34.3381 -8.20467,-11.8512 -13.21863,-9.1163 -13.21863,-9.1163 z"
         style="color:#000000;fill:#f10000;fill-opacity:1;fill-rule:nonzero;stroke:none;stroke-width:20;marker:none;visibility:visible;display:inline;overflow:visible;enable-background:accumulate" />
      <path
         transform="matrix(0.26458334,0,0,0.26458334,-5e-5,-1025.9167)"
         inkscape:connector-curvature="0"
         id="path18090"
         d="m -662.45426,4454.2219 c 0.64462,10.7437 9.6693,36.0987 14.61138,47.0573 4.94209,10.9585 6.23133,9.4544 7.30569,15.4708 1.07437,6.0165 0.21488,8.1652 5.37184,12.6776 5.15695,4.5123 6.44619,-9.8842 6.23132,-17.8345 -0.21487,-7.9503 -7.52056,-21.9171 -9.88417,-29.2228 -2.36361,-7.3057 -7.30569,-18.694 -10.95854,-24.7104 -3.65284,-6.0165 -13.32214,-10.099 -12.67752,-7.5206 0.64462,2.5785 0,4.0826 0,4.0826 z"
         style="color:#000000;fill:#f10000;fill-opacity:1;fill-rule:nonzero;stroke:none;stroke-width:20;marker:none;visibility:visible;display:inline;overflow:visible;enable-background:accumulate" />
      <g
         transform="translate(29.335572,0)"
         id="g18056">
        <g
           id="g18058">
          <g
             id="g18060">
            <g
               transform="translate(-32.321084,8.3616734)"
               id="g18062">
              <g
                 id="g18064"
                 transform="translate(-52.42126,0)">
                <path
                   style="opacity:0;color:#000000;fill:#b80000;fill-opacity:1;fill-rule:nonzero;stroke:none;stroke-width:20;marker:none;visibility:visible;display:inline;overflow:visible;enable-background:accumulate"
                   d="m -128.2616,136.53044 25.69264,0 0,54.75629 -25.69264,0 z"
                   id="rect18066"
                   inkscape:connector-curvature="0"
                   sodipodi:nodetypes="ccccc" />
                <g
                   id="g18068">
                  <g
                     id="g18070">
                    <path
                       style="color:#000000;fill:#550000;fill-opacity:1;fill-rule:nonzero;stroke:none;stroke-width:20;marker:none;visibility:visible;display:inline;overflow:visible;enable-background:accumulate"
                       d="m -124.62114,148.74112 c 4.82404,11.25607 6.03005,17.76855 6.67325,17.60773 0.64321,-0.16081 -0.98628,-9.3187 -2.17081,-12.62292 -1.52762,-4.26123 -4.66325,-8.76367 -6.19086,-10.37167 -1.52761,-1.60803 1.68842,5.38686 1.68842,5.38686 z"
                       id="path18072"
                       inkscape:connector-curvature="0"
                       sodipodi:nodetypes="csssc" />
                    <path
                       style="color:#000000;fill:#7d0000;fill-opacity:1;fill-rule:nonzero;stroke:none;stroke-width:20;marker:none;visibility:visible;display:inline;overflow:visible;enable-background:accumulate"
                       d="m -468.85345,4436.6023 c 7.52056,13.537 18.90885,51.9993 18.04935,48.5614 -0.85949,-3.438 -3.65284,-23.851 -7.52056,-31.1567 -3.86772,-7.3056 -10.52879,-17.4047 -10.52879,-17.4047 z"
                       id="path18074"
                       inkscape:connector-curvature="0"
                       transform="matrix(0.26458334,0,0,0.26458334,-5e-5,-1025.9167)" />
                  </g>
                  <g
                     id="g18076">
                    <path
                       sodipodi:nodetypes="ccssc"
                       inkscape:connector-curvature="0"
                       id="path18078"
                       d="m -117.38508,150.75113 c 2.57282,5.30643 2.83368,7.69729 5.54764,16.08012 0.96481,-1.36682 0.42456,-8.9864 -2.97482,-17.36656 -2.73447,-6.74105 -6.35166,-9.88928 -7.87927,-11.49728 -1.52761,-1.60803 2.33163,4.90446 5.30645,12.78372 z"
                       style="color:#000000;fill:#550000;fill-opacity:1;fill-rule:nonzero;stroke:none;stroke-width:20;marker:none;visibility:visible;display:inline;overflow:visible;enable-background:accumulate" />
                    <path
                       sodipodi:nodetypes="cssssc"
                       style="color:#000000;fill:#7d0000;fill-opacity:1;fill-rule:nonzero;stroke:none;stroke-width:20;marker:none;visibility:visible;display:inline;overflow:visible;enable-background:accumulate"
                       d="m -457.58068,4410.1999 c 6.91287,11.0678 29.33827,68.5176 31.48701,77.7571 2.14873,9.2396 3.65284,13.537 2.3636,6.876 -1.28924,-6.6611 -6.01645,-35.4541 -12.46265,-49.6358 -6.44619,-14.1816 -10.8565,-20.4867 -13.43498,-26.0734 -2.57848,-5.5867 -14.12579,-19.8127 -7.95298,-8.9239 z"
                       id="path18080"
                       inkscape:connector-curvature="0"
                       transform="matrix(0.26458334,0,0,0.26458334,-5e-5,-1025.9167)" />
                  </g>
                  <g
                     id="g18082">
                    <path
                       style="color:#000000;fill:#550000;fill-opacity:1;fill-rule:nonzero;stroke:none;stroke-width:20;marker:none;visibility:visible;display:inline;overflow:visible;enable-background:accumulate"
                       d="m -112.31492,146.27218 c 3.13758,5.41906 4.27204,14.99692 4.63014,14.37331 0.35811,-0.62362 0.44652,-5.7118 -0.94283,-10.94613 -1.38933,-5.23432 -4.5651,-8.0555 -6.32792,-9.60676 -2.26294,-1.258 0.30899,2.56154 2.64061,6.17958 z"
                       id="path18084"
                       inkscape:connector-curvature="0"
                       sodipodi:nodetypes="ccscc" />
                    <path
                       style="color:#000000;fill:#7d0000;fill-opacity:1;fill-rule:nonzero;stroke:none;stroke-width:20;marker:none;visibility:visible;display:inline;overflow:visible;enable-background:accumulate"
                       d="m -113.53326,142.98824 c 2.61518,2.89946 4.43444,8.52778 4.94611,10.51761 0.51167,1.9898 -0.28426,-4.09334 -1.47815,-5.91259 -1.19389,-1.81928 -3.46796,-4.60502 -3.46796,-4.60502 z"
                       id="path18086"
                       inkscape:connector-curvature="0" />
                  </g>
                </g>
              </g>
            </g>
          </g>
        </g>
      </g>
    </g>
    <g
       id="g18179"
       transform="matrix(3.624013,0,0,3.9529206,468.60764,-689.29002)"
       inkscape:export-filename="C:\Users\rober\Desktop\assets\ASSETS_2020\blood_effects_2\claw_slash\keyframes\claw_slash_05.png"
       inkscape:export-xdpi="90"
       inkscape:export-ydpi="90">
      <path
         id="path18132"
         transform="matrix(0.26458334,0,0,0.26458334,-5e-5,-1025.9167)"
         d="m -522.78125,4459.5938 c -0.92365,0.01 -1.40625,0.25 -1.40625,0.25 -1.2155,8.3566 9.72738,37.4073 14.4375,45.1562 0.68689,1.13 1.43432,2.0807 2.21875,2.9062 3.33036,9.2098 4.52593,16.0269 4.9375,19.5938 0.64462,5.5867 -4.93428,13.2879 3.4375,15.4688 8.40766,2.19 11.86991,-4.3353 5.59375,-17.1876 -2.00341,-4.1025 -1.17581,-20.7789 -6.25,-31.0937 -1.82255,-8.1777 -5.14046,-17.0293 -11.15625,-25.7187 -5.64071,-8.1477 -9.78047,-9.3873 -11.8125,-9.375 z"
         style="color:#000000;fill:#f10000;fill-opacity:1;fill-rule:nonzero;stroke:none;stroke-width:20;marker:none;visibility:visible;display:inline;overflow:visible;enable-background:accumulate"
         inkscape:connector-curvature="0" />
      <path
         id="path18134"
         transform="matrix(0.26458334,0,0,0.26458334,-5e-5,-1025.9167)"
         d="m -501.375,4449.375 c -0.49669,0.046 -0.74586,0.2666 -0.625,0.75 0.64464,2.5785 0,4.0938 0,4.0938 0.64464,10.7436 9.65168,36.1038 14.59375,47.0624 4.94207,10.9585 6.23817,9.4524 7.3125,15.4688 0.70247,3.9339 0.57244,6.2251 1.84375,8.5938 -0.80697,11.2126 -5.62094,17.2156 -0.90625,24.0624 4.1599,6.0413 10.33702,4.9762 14.8125,-1.2812 3.88298,-6.8063 -4.29699,-9.041 -3.4375,-23.4375 0.20486,-3.4314 -0.0781,-6.94 -0.6875,-9.625 0.0307,-1.2333 -0.003,-2.4054 -0.0312,-3.4687 -0.21468,-7.9504 -7.5114,-21.9131 -9.875,-29.2188 -2.3636,-7.3057 -7.31587,-18.7023 -10.96875,-24.7188 -2.96793,-4.8883 -9.87894,-8.4817 -12.03125,-8.2812 z"
         style="color:#000000;fill:#f10000;fill-opacity:1;fill-rule:nonzero;stroke:none;stroke-width:20;marker:none;visibility:visible;display:inline;overflow:visible;enable-background:accumulate"
         inkscape:connector-curvature="0" />
      <path
         id="path18136"
         transform="matrix(0.26458334,0,0,0.26458334,-5e-5,-1025.9167)"
         d="m -474.78125,4447.3125 c -2.71948,0 -3.8125,3.25 -3.8125,3.25 1.5041,8.8098 6.7104,17.8911 8.8125,27.0937 1.37626,6.0252 5.15361,11.739 7.375,17.4688 3.14607,13.5434 -3.55947,19.5657 -0.875,24.2188 3.2231,5.5866 12.92699,4.9951 14.40625,0.1874 2.57848,-8.38 -6.23062,-6.2202 -5.15625,-23.625 0.36179,-5.8609 -0.18446,-12.0695 -1.40625,-14.6562 -0.10012,-0.8351 -0.22576,-1.6756 -0.375,-2.5312 -3.22311,-18.4792 -10.53056,-26.2261 -15.6875,-30.0938 -1.28923,-0.9669 -2.37476,-1.3125 -3.28125,-1.3125 z"
         style="color:#000000;fill:#f10000;fill-opacity:1;fill-rule:nonzero;stroke:none;stroke-width:20;marker:none;visibility:visible;display:inline;overflow:visible;enable-background:accumulate"
         inkscape:connector-curvature="0" />
      <g
         id="g18100"
         transform="translate(71.787145,0)">
        <g
           id="g18102">
          <g
             id="g18104">
            <g
               id="g18106"
               transform="translate(-32.321084,8.3616734)">
              <g
                 transform="translate(-52.42126,0)"
                 id="g18108">
                <path
                   style="opacity:0;color:#000000;fill:#b80000;fill-opacity:1;fill-rule:nonzero;stroke:none;stroke-width:20;marker:none;visibility:visible;display:inline;overflow:visible;enable-background:accumulate"
                   d="m -128.2616,136.53044 25.69264,0 0,54.75629 -25.69264,0 z"
                   id="rect18110"
                   inkscape:connector-curvature="0"
                   sodipodi:nodetypes="ccccc" />
                <g
                   id="g18112">
                  <g
                     id="g18114">
                    <path
                       sodipodi:nodetypes="csssc"
                       inkscape:connector-curvature="0"
                       id="path18116"
                       d="m -124.62114,148.74112 c 4.82404,11.25607 6.03005,17.76855 6.67325,17.60773 0.64321,-0.16081 -0.98628,-9.3187 -2.17081,-12.62292 -1.52762,-4.26123 -4.66325,-8.76367 -6.19086,-10.37167 -1.52761,-1.60803 1.68842,5.38686 1.68842,5.38686 z"
                       style="color:#000000;fill:#550000;fill-opacity:1;fill-rule:nonzero;stroke:none;stroke-width:20;marker:none;visibility:visible;display:inline;overflow:visible;enable-background:accumulate" />
                    <path
                       transform="matrix(0.26458334,0,0,0.26458334,-5e-5,-1025.9167)"
                       inkscape:connector-curvature="0"
                       id="path18118"
                       d="m -468.85345,4436.6023 c 7.52056,13.537 18.90885,51.9993 18.04935,48.5614 -0.85949,-3.438 -3.65284,-23.851 -7.52056,-31.1567 -3.86772,-7.3056 -10.52879,-17.4047 -10.52879,-17.4047 z"
                       style="color:#000000;fill:#7d0000;fill-opacity:1;fill-rule:nonzero;stroke:none;stroke-width:20;marker:none;visibility:visible;display:inline;overflow:visible;enable-background:accumulate" />
                  </g>
                  <g
                     id="g18120">
                    <path
                       style="color:#000000;fill:#550000;fill-opacity:1;fill-rule:nonzero;stroke:none;stroke-width:20;marker:none;visibility:visible;display:inline;overflow:visible;enable-background:accumulate"
                       d="m -117.38508,150.75113 c 2.57282,5.30643 2.83368,7.69729 5.54764,16.08012 0.96481,-1.36682 0.42456,-8.9864 -2.97482,-17.36656 -2.73447,-6.74105 -6.35166,-9.88928 -7.87927,-11.49728 -1.52761,-1.60803 2.33163,4.90446 5.30645,12.78372 z"
                       id="path18122"
                       inkscape:connector-curvature="0"
                       sodipodi:nodetypes="ccssc" />
                    <path
                       transform="matrix(0.26458334,0,0,0.26458334,-5e-5,-1025.9167)"
                       inkscape:connector-curvature="0"
                       id="path18124"
                       d="m -457.58068,4410.1999 c 6.91287,11.0678 29.33827,68.5176 31.48701,77.7571 2.14873,9.2396 3.65284,13.537 2.3636,6.876 -1.28924,-6.6611 -6.01645,-35.4541 -12.46265,-49.6358 -6.44619,-14.1816 -10.8565,-20.4867 -13.43498,-26.0734 -2.57848,-5.5867 -14.12579,-19.8127 -7.95298,-8.9239 z"
                       style="color:#000000;fill:#7d0000;fill-opacity:1;fill-rule:nonzero;stroke:none;stroke-width:20;marker:none;visibility:visible;display:inline;overflow:visible;enable-background:accumulate"
                       sodipodi:nodetypes="cssssc" />
                  </g>
                  <g
                     id="g18126">
                    <path
                       sodipodi:nodetypes="ccscc"
                       inkscape:connector-curvature="0"
                       id="path18128"
                       d="m -112.31492,146.27218 c 3.13758,5.41906 4.27204,14.99692 4.63014,14.37331 0.35811,-0.62362 0.44652,-5.7118 -0.94283,-10.94613 -1.38933,-5.23432 -4.5651,-8.0555 -6.32792,-9.60676 -2.26294,-1.258 0.30899,2.56154 2.64061,6.17958 z"
                       style="color:#000000;fill:#550000;fill-opacity:1;fill-rule:nonzero;stroke:none;stroke-width:20;marker:none;visibility:visible;display:inline;overflow:visible;enable-background:accumulate" />
                    <path
                       inkscape:connector-curvature="0"
                       id="path18130"
                       d="m -113.53326,142.98824 c 2.61518,2.89946 4.43444,8.52778 4.94611,10.51761 0.51167,1.9898 -0.28426,-4.09334 -1.47815,-5.91259 -1.19389,-1.81928 -3.46796,-4.60502 -3.46796,-4.60502 z"
                       style="color:#000000;fill:#7d0000;fill-opacity:1;fill-rule:nonzero;stroke:none;stroke-width:20;marker:none;visibility:visible;display:inline;overflow:visible;enable-background:accumulate" />
                  </g>
                </g>
              </g>
            </g>
          </g>
        </g>
      </g>
    </g>
    <g
       id="g18264"
       transform="matrix(3.624013,0,0,3.9529206,398.54913,-689.29002)"
       inkscape:export-filename="C:\Users\rober\Desktop\assets\ASSETS_2020\blood_effects_2\claw_slash\keyframes\claw_slash_06.png"
       inkscape:export-xdpi="90"
       inkscape:export-ydpi="90">
      <path
         inkscape:connector-curvature="0"
         style="color:#000000;fill:#f10000;fill-opacity:1;fill-rule:nonzero;stroke:none;stroke-width:20;marker:none;visibility:visible;display:inline;overflow:visible;enable-background:accumulate"
         d="m -93.294864,154.01752 c -0.244382,0.001 -0.37207,0.0662 -0.37207,0.0662 -0.321601,2.21102 2.573703,9.89735 3.819922,11.94758 0.18174,0.29898 0.379497,0.55052 0.587044,0.76893 0.472675,1.30714 1.368114,3.23564 1.486911,4.14875 0.102663,0.7891 1.20357,2.54315 1.030519,5.14381 -0.06807,1.02295 -0.768753,2.44782 -0.896099,3.59793 -0.122177,1.10342 0.30257,1.95394 1.430813,1.95394 1.525069,-6e-4 1.866345,-0.8477 1.685478,-2.18764 -0.133072,-0.98584 -0.640984,-2.16471 -0.698115,-3.84545 -0.03517,-1.03452 0.150919,-2.05507 0.09413,-2.57833 -0.08285,-0.76342 -0.336834,-1.47891 -0.544818,-3.0197 -0.257623,-1.90853 -0.50806,-4.59967 -1.546571,-6.71076 -0.482217,-2.16368 -1.36008,-4.50567 -2.951758,-6.80474 -1.492438,-2.15574 -2.587749,-2.48372 -3.125391,-2.48047 z"
         id="path18141"
         sodipodi:nodetypes="ccccssscsssscscc" />
      <path
         inkscape:connector-curvature="0"
         style="color:#000000;fill:#f10000;fill-opacity:1;fill-rule:nonzero;stroke:none;stroke-width:20;marker:none;visibility:visible;display:inline;overflow:visible;enable-background:accumulate"
         d="m -87.631127,151.3138 c -0.131416,0.0123 -0.197342,0.0705 -0.165364,0.19844 0.170561,0.68222 0,1.08315 0,1.08315 0.170561,2.84257 2.553673,9.55246 3.861263,12.45192 1.307589,2.89944 1.650516,2.50095 1.934766,4.09279 0.185861,1.04085 1.569898,5.11503 0.769227,9.49397 -0.776315,2.60486 -1.989711,4.39416 -0.742283,6.20571 1.100641,1.59842 3.257609,1.51762 4.441746,-0.13799 1.147973,-2.16263 -0.163474,-2.69619 -0.889405,-6.44237 -0.969134,-5.00123 -0.261852,-6.88558 -0.382903,-8.88239 0.0081,-0.32631 -0.121265,-1.31984 -0.128901,-1.60117 -0.0568,-2.10355 -1.987392,-5.79784 -2.612761,-7.73081 -0.625369,-1.93297 -1.935657,-4.94832 -2.902148,-6.54018 -0.785265,-1.29337 -2.613803,-2.24412 -3.183269,-2.19107 z"
         id="path18143"
         sodipodi:nodetypes="cccsscscsccsscc" />
      <path
         inkscape:connector-curvature="0"
         style="color:#000000;fill:#f10000;fill-opacity:1;fill-rule:nonzero;stroke:none;stroke-width:20;marker:none;visibility:visible;display:inline;overflow:visible;enable-background:accumulate"
         d="m -80.594863,150.7681 c -0.71953,0 -1.008724,0.85989 -1.008724,0.85989 0.397959,2.33093 1.775477,4.73369 2.33164,7.16854 0.222858,0.97566 1.578843,1.39256 2.202847,3.68132 0.39558,1.45094 0.430052,4.21838 0.658085,4.80657 0.03647,3.24224 -1.169183,5.06304 -0.458917,6.29418 0.852779,1.47812 2.05582,1.43533 2.447208,0.16331 0.682223,-2.21721 -1.08,-2.7828 -0.682035,-5.68226 0.211265,-1.53922 -0.04881,-7.62784 -0.37207,-8.31224 -0.02649,-0.22095 -0.05973,-0.44333 -0.09922,-0.66971 -0.852781,-4.88929 -2.786211,-6.93899 -4.150651,-7.96232 -0.341109,-0.25582 -0.628322,-0.34726 -0.868164,-0.34726 z"
         id="path18145"
         sodipodi:nodetypes="ccssccssccccc" />
      <g
         transform="translate(116.81154,0)"
         id="g18147">
        <g
           id="g18149">
          <g
             id="g18151">
            <g
               transform="translate(-32.321084,8.3616734)"
               id="g18153">
              <g
                 id="g18155"
                 transform="translate(-52.42126,0)">
                <path
                   style="opacity:0;color:#000000;fill:#b80000;fill-opacity:1;fill-rule:nonzero;stroke:none;stroke-width:20;marker:none;visibility:visible;display:inline;overflow:visible;enable-background:accumulate"
                   d="m -128.2616,136.53044 25.69264,0 0,54.75629 -25.69264,0 z"
                   id="rect18157"
                   inkscape:connector-curvature="0"
                   sodipodi:nodetypes="ccccc" />
                <g
                   id="g18159">
                  <g
                     id="g18161">
                    <path
                       style="color:#000000;fill:#550000;fill-opacity:1;fill-rule:nonzero;stroke:none;stroke-width:20;marker:none;visibility:visible;display:inline;overflow:visible;enable-background:accumulate"
                       d="m -124.62114,148.74112 c 4.82404,11.25607 6.03005,17.76855 6.67325,17.60773 0.64321,-0.16081 -0.98628,-9.3187 -2.17081,-12.62292 -1.52762,-4.26123 -4.66325,-8.76367 -6.19086,-10.37167 -1.52761,-1.60803 1.68842,5.38686 1.68842,5.38686 z"
                       id="path18163"
                       inkscape:connector-curvature="0"
                       sodipodi:nodetypes="csssc" />
                    <path
                       style="color:#000000;fill:#7d0000;fill-opacity:1;fill-rule:nonzero;stroke:none;stroke-width:20;marker:none;visibility:visible;display:inline;overflow:visible;enable-background:accumulate"
                       d="m -468.85345,4436.6023 c 7.52056,13.537 18.90885,51.9993 18.04935,48.5614 -0.85949,-3.438 -3.65284,-23.851 -7.52056,-31.1567 -3.86772,-7.3056 -10.52879,-17.4047 -10.52879,-17.4047 z"
                       id="path18165"
                       inkscape:connector-curvature="0"
                       transform="matrix(0.26458334,0,0,0.26458334,-5e-5,-1025.9167)" />
                  </g>
                  <g
                     id="g18167">
                    <path
                       sodipodi:nodetypes="ccssc"
                       inkscape:connector-curvature="0"
                       id="path18169"
                       d="m -117.38508,150.75113 c 2.57282,5.30643 2.83368,7.69729 5.54764,16.08012 0.96481,-1.36682 0.42456,-8.9864 -2.97482,-17.36656 -2.73447,-6.74105 -6.35166,-9.88928 -7.87927,-11.49728 -1.52761,-1.60803 2.33163,4.90446 5.30645,12.78372 z"
                       style="color:#000000;fill:#550000;fill-opacity:1;fill-rule:nonzero;stroke:none;stroke-width:20;marker:none;visibility:visible;display:inline;overflow:visible;enable-background:accumulate" />
                    <path
                       sodipodi:nodetypes="cssssc"
                       style="color:#000000;fill:#7d0000;fill-opacity:1;fill-rule:nonzero;stroke:none;stroke-width:20;marker:none;visibility:visible;display:inline;overflow:visible;enable-background:accumulate"
                       d="m -457.58068,4410.1999 c 6.91287,11.0678 29.33827,68.5176 31.48701,77.7571 2.14873,9.2396 3.65284,13.537 2.3636,6.876 -1.28924,-6.6611 -6.01645,-35.4541 -12.46265,-49.6358 -6.44619,-14.1816 -10.8565,-20.4867 -13.43498,-26.0734 -2.57848,-5.5867 -14.12579,-19.8127 -7.95298,-8.9239 z"
                       id="path18171"
                       inkscape:connector-curvature="0"
                       transform="matrix(0.26458334,0,0,0.26458334,-5e-5,-1025.9167)" />
                  </g>
                  <g
                     id="g18173">
                    <path
                       style="color:#000000;fill:#550000;fill-opacity:1;fill-rule:nonzero;stroke:none;stroke-width:20;marker:none;visibility:visible;display:inline;overflow:visible;enable-background:accumulate"
                       d="m -112.31492,146.27218 c 3.13758,5.41906 4.27204,14.99692 4.63014,14.37331 0.35811,-0.62362 0.44652,-5.7118 -0.94283,-10.94613 -1.38933,-5.23432 -4.5651,-8.0555 -6.32792,-9.60676 -2.26294,-1.258 0.30899,2.56154 2.64061,6.17958 z"
                       id="path18175"
                       inkscape:connector-curvature="0"
                       sodipodi:nodetypes="ccscc" />
                    <path
                       style="color:#000000;fill:#7d0000;fill-opacity:1;fill-rule:nonzero;stroke:none;stroke-width:20;marker:none;visibility:visible;display:inline;overflow:visible;enable-background:accumulate"
                       d="m -113.53326,142.98824 c 2.61518,2.89946 4.43444,8.52778 4.94611,10.51761 0.51167,1.9898 -0.28426,-4.09334 -1.47815,-5.91259 -1.19389,-1.81928 -3.46796,-4.60502 -3.46796,-4.60502 z"
                       id="path18177"
                       inkscape:connector-curvature="0" />
                  </g>
                </g>
              </g>
            </g>
          </g>
        </g>
      </g>
    </g>
    <g
       id="g18327"
       transform="matrix(3.624013,0,0,3.9529206,584.77003,-689.29002)"
       inkscape:export-filename="C:\Users\rober\Desktop\assets\ASSETS_2020\blood_effects_2\claw_slash\keyframes\claw_slash_08.png"
       inkscape:export-xdpi="90"
       inkscape:export-ydpi="90">
      <path
         inkscape:connector-curvature="0"
         style="color:#000000;fill:#f10000;fill-opacity:1;fill-rule:nonzero;stroke:none;stroke-width:20;marker:none;visibility:visible;display:inline;overflow:visible;enable-background:accumulate"
         d="m -93.294864,154.01752 c -0.244382,0.001 -0.37207,0.0662 -0.37207,0.0662 -0.321601,2.21102 2.573703,9.89735 3.819922,11.94758 0.18174,0.29898 0.379497,0.55052 0.587044,0.76893 0.472675,1.30714 1.368114,3.23564 1.486911,4.14875 0.05896,0.45316 0.447123,1.22455 0.73417,2.29175 0.212797,0.79116 0.378857,7.04769 0.285041,8.45757 -0.08668,1.30263 -1.649597,2.7859 -1.857784,4.66611 -0.199735,1.80387 0.494644,3.19431 2.339103,3.19431 2.493193,-9.8e-4 3.051112,-1.38583 2.75543,-3.57638 -0.217547,-1.61165 -1.225769,-2.75656 -1.29852,-4.89683 -0.04479,-1.31737 -0.253925,-7.52901 -0.310714,-8.05227 -0.08285,-0.76342 -0.336834,-1.47891 -0.544818,-3.0197 -0.257623,-1.90853 -0.50806,-4.59967 -1.546571,-6.71076 -0.482217,-2.16368 -1.36008,-4.50567 -2.951758,-6.80474 -1.492438,-2.15574 -2.587749,-2.48372 -3.125391,-2.48047 z"
         id="path18329"
         sodipodi:nodetypes="ccccsssscsssscscc" />
      <path
         inkscape:connector-curvature="0"
         style="color:#000000;fill:#f10000;fill-opacity:1;fill-rule:nonzero;stroke:none;stroke-width:20;marker:none;visibility:visible;display:inline;overflow:visible;enable-background:accumulate"
         d="m -87.631127,151.3138 c -0.131416,0.0123 -0.197342,0.0705 -0.165364,0.19844 0.170561,0.68222 0,1.08315 0,1.08315 0.170561,2.84257 2.553673,9.55246 3.861263,12.45192 1.307589,2.89944 1.650516,2.50095 1.934766,4.09279 0.185861,1.04085 1.569898,16.06765 0.769227,20.44659 -0.776315,2.60486 -1.768609,4.55496 -0.521181,6.36651 1.100641,1.59842 2.735004,1.31662 3.919141,-0.33899 1.147973,-2.16263 0.138029,-2.65599 -0.587902,-6.40217 -0.969134,-5.00123 -0.261852,-17.8382 -0.382903,-19.83501 0.0081,-0.32631 -0.121265,-1.31984 -0.128901,-1.60117 -0.0568,-2.10355 -1.987392,-5.79784 -2.612761,-7.73081 -0.625369,-1.93297 -1.935657,-4.94832 -2.902148,-6.54018 -0.785265,-1.29337 -2.613803,-2.24412 -3.183269,-2.19107 z"
         id="path18331"
         sodipodi:nodetypes="cccsscscsccsscc" />
      <path
         inkscape:connector-curvature="0"
         style="color:#000000;fill:#f10000;fill-opacity:1;fill-rule:nonzero;stroke:none;stroke-width:20;marker:none;visibility:visible;display:inline;overflow:visible;enable-background:accumulate"
         d="m -80.594863,150.7681 c -0.71953,0 -1.008724,0.85989 -1.008724,0.85989 0.397959,2.33093 1.775477,4.73369 2.33164,7.16854 0.222858,0.97566 1.578846,1.39256 2.202847,3.68132 0.27603,1.01244 0.411983,3.13202 0.557997,4.55039 0.06324,0.6143 0.128366,9.29182 0.207577,9.49614 0.04192,3.72666 -1.906675,5.01549 -1.090288,6.43058 0.980192,1.69896 2.764982,1.40858 3.214847,-0.0535 0.784153,-2.54848 -1.241358,-3.19858 -0.783937,-6.53124 0.0447,-0.32567 0.06648,-8.98858 0.07025,-9.54001 0.01672,-2.44421 -0.320424,-6.52439 -0.584179,-7.08281 -0.02649,-0.22095 -0.05973,-0.44333 -0.09922,-0.66971 -0.852781,-4.88929 -2.786211,-6.93899 -4.150651,-7.96232 -0.341109,-0.25582 -0.628322,-0.34726 -0.868164,-0.34726 z"
         id="path18333"
         sodipodi:nodetypes="ccsssccsssccccc" />
      <g
         transform="translate(116.81154,0)"
         id="g18335">
        <g
           id="g18337">
          <g
             id="g18339">
            <g
               transform="translate(-32.321084,8.3616734)"
               id="g18341">
              <g
                 id="g18343"
                 transform="translate(-52.42126,0)">
                <path
                   style="opacity:0;color:#000000;fill:#b80000;fill-opacity:1;fill-rule:nonzero;stroke:none;stroke-width:20;marker:none;visibility:visible;display:inline;overflow:visible;enable-background:accumulate"
                   d="m -128.2616,136.53044 25.69264,0 0,54.75629 -25.69264,0 z"
                   id="rect18345"
                   inkscape:connector-curvature="0"
                   sodipodi:nodetypes="ccccc" />
                <g
                   id="g18347">
                  <g
                     id="g18349">
                    <path
                       style="color:#000000;fill:#550000;fill-opacity:1;fill-rule:nonzero;stroke:none;stroke-width:20;marker:none;visibility:visible;display:inline;overflow:visible;enable-background:accumulate"
                       d="m -124.62114,148.74112 c 4.82404,11.25607 6.03005,17.76855 6.67325,17.60773 0.64321,-0.16081 -0.98628,-9.3187 -2.17081,-12.62292 -1.52762,-4.26123 -4.66325,-8.76367 -6.19086,-10.37167 -1.52761,-1.60803 1.68842,5.38686 1.68842,5.38686 z"
                       id="path18351"
                       inkscape:connector-curvature="0"
                       sodipodi:nodetypes="csssc" />
                    <path
                       style="color:#000000;fill:#7d0000;fill-opacity:1;fill-rule:nonzero;stroke:none;stroke-width:20;marker:none;visibility:visible;display:inline;overflow:visible;enable-background:accumulate"
                       d="m -468.85345,4436.6023 c 7.52056,13.537 18.90885,51.9993 18.04935,48.5614 -0.85949,-3.438 -3.65284,-23.851 -7.52056,-31.1567 -3.86772,-7.3056 -10.52879,-17.4047 -10.52879,-17.4047 z"
                       id="path18353"
                       inkscape:connector-curvature="0"
                       transform="matrix(0.26458334,0,0,0.26458334,-5e-5,-1025.9167)" />
                  </g>
                  <g
                     id="g18355">
                    <path
                       sodipodi:nodetypes="ccssc"
                       inkscape:connector-curvature="0"
                       id="path18357"
                       d="m -117.38508,150.75113 c 2.57282,5.30643 2.83368,7.69729 5.54764,16.08012 0.96481,-1.36682 0.42456,-8.9864 -2.97482,-17.36656 -2.73447,-6.74105 -6.35166,-9.88928 -7.87927,-11.49728 -1.52761,-1.60803 2.33163,4.90446 5.30645,12.78372 z"
                       style="color:#000000;fill:#550000;fill-opacity:1;fill-rule:nonzero;stroke:none;stroke-width:20;marker:none;visibility:visible;display:inline;overflow:visible;enable-background:accumulate" />
                    <path
                       sodipodi:nodetypes="cssssc"
                       style="color:#000000;fill:#7d0000;fill-opacity:1;fill-rule:nonzero;stroke:none;stroke-width:20;marker:none;visibility:visible;display:inline;overflow:visible;enable-background:accumulate"
                       d="m -457.58068,4410.1999 c 6.91287,11.0678 29.33827,68.5176 31.48701,77.7571 2.14873,9.2396 3.65284,13.537 2.3636,6.876 -1.28924,-6.6611 -6.01645,-35.4541 -12.46265,-49.6358 -6.44619,-14.1816 -10.8565,-20.4867 -13.43498,-26.0734 -2.57848,-5.5867 -14.12579,-19.8127 -7.95298,-8.9239 z"
                       id="path18359"
                       inkscape:connector-curvature="0"
                       transform="matrix(0.26458334,0,0,0.26458334,-5e-5,-1025.9167)" />
                  </g>
                  <g
                     id="g18361">
                    <path
                       style="color:#000000;fill:#550000;fill-opacity:1;fill-rule:nonzero;stroke:none;stroke-width:20;marker:none;visibility:visible;display:inline;overflow:visible;enable-background:accumulate"
                       d="m -112.31492,146.27218 c 3.13758,5.41906 4.27204,14.99692 4.63014,14.37331 0.35811,-0.62362 0.44652,-5.7118 -0.94283,-10.94613 -1.38933,-5.23432 -4.5651,-8.0555 -6.32792,-9.60676 -2.26294,-1.258 0.30899,2.56154 2.64061,6.17958 z"
                       id="path18363"
                       inkscape:connector-curvature="0"
                       sodipodi:nodetypes="ccscc" />
                    <path
                       style="color:#000000;fill:#7d0000;fill-opacity:1;fill-rule:nonzero;stroke:none;stroke-width:20;marker:none;visibility:visible;display:inline;overflow:visible;enable-background:accumulate"
                       d="m -113.53326,142.98824 c 2.61518,2.89946 4.43444,8.52778 4.94611,10.51761 0.51167,1.9898 -0.28426,-4.09334 -1.47815,-5.91259 -1.19389,-1.81928 -3.46796,-4.60502 -3.46796,-4.60502 z"
                       id="path18365"
                       inkscape:connector-curvature="0" />
                  </g>
                </g>
              </g>
            </g>
          </g>
        </g>
      </g>
    </g>
    <g
       id="g18421"
       transform="matrix(3.624013,0,0,3.9529206,770.99097,-689.29002)"
       inkscape:export-filename="C:\Users\rober\Desktop\assets\ASSETS_2020\blood_effects_2\claw_slash\keyframes\claw_slash_10.png"
       inkscape:export-xdpi="90"
       inkscape:export-ydpi="90">
      <path
         style="color:#000000;fill:#f10000;fill-opacity:1;fill-rule:nonzero;stroke:none;stroke-width:20;marker:none;visibility:visible;display:inline;overflow:visible;enable-background:accumulate"
         d="m 90.625,4459.5938 c -0.923648,0 -1.40625,0.25 -1.40625,0.25 -1.2155,8.3566 9.727381,37.4073 14.4375,45.1562 0.68689,1.13 1.43432,2.0808 2.21875,2.9062 1.78649,4.9404 5.176,12.2364 5.625,15.6876 0.099,0.7609 0.45865,1.8028 0.90625,3.0312 1.90742,2.9682 3.14665,4.4297 4,4.7812 -0.55428,8.6019 0.35495,16.6859 2.09375,16.4376 2.12714,-0.3039 3.05926,-10.0282 1.84375,-17.625 -0.46793,-2.9247 -1.06042,-4.2608 -1.625,-4.8126 0.25201,-1.8411 0.46892,-3.6906 0.6875,-5.5312 -0.96569,-7.2023 -1.91871,-17.2722 -5.8125,-25.1875 -1.82255,-8.1777 -5.14046,-17.0294 -11.15625,-25.7187 -5.64071,-8.1477 -9.780467,-9.3873 -11.8125,-9.375 z m 66.9375,51.25 c -0.96542,0.063 -1.375,3.25 -1.375,3.25 0.30388,7.5968 1.82974,17.3168 2.4375,13.0624 0.60775,-4.2542 1.20688,-13.6541 -0.3125,-15.7812 -0.28488,-0.3988 -0.52721,-0.5457 -0.75,-0.5312 z m -0.65625,40.75 c -0.85465,0.043 -1.03125,1.4062 -1.03125,1.4062 0.30387,8.5086 2.14224,14.8879 2.75,10.9375 0.60775,-3.9504 1.22951,-10.3243 -0.59375,-11.8437 -0.45582,-0.3799 -0.84012,-0.5143 -1.125,-0.5 z m -37.65625,4.1874 c -0.13354,0.015 -0.28556,0.098 -0.4375,0.25 -1.21551,1.2157 -1.53125,2.125 -1.53125,2.125 -1.21551,7.2931 3.96012,9.7372 3.65625,4.875 -0.2659,-4.2542 -0.75272,-7.358 -1.6875,-7.25 z m 23.53125,2.625 c -0.0811,0.01 -0.15504,0.024 -0.25,0.063 -1.51938,0.6076 -1.84375,1.5312 -1.84375,1.5312 -0.30388,4.5581 1.82975,9.1066 2.4375,5.1562 0.56978,-3.7034 0.87258,-6.869 -0.34375,-6.75 z m -23.625,13.0938 c -1.14006,-0.018 -1.875,1.8438 -1.875,1.8438 -1.29965,6.7147 -1.34198,13.2557 -0.28125,16.25 -10.56223,2.4179 -8.66344,21.1535 -0.3125,21.75 8.50855,0.6076 10.93425,-5.7867 9.71875,-13.6876 -0.63881,-4.1522 -3.02137,-6.2044 -5.15625,-7.2187 0.63918,0.029 1.276,-0.2311 1.8125,-0.9687 2.11195,-2.904 0.34541,-7.4171 -1.15625,-8.75 0.14571,-3.196 -0.13037,-6.2191 -0.96875,-7.6563 -0.66473,-1.1396 -1.26304,-1.5543 -1.78125,-1.5625 z m 37.1875,6.1562 c -0.11633,-0.01 -0.27883,0.06 -0.46875,0.25 -1.51939,1.5195 -0.91273,5.1832 -3.34375,9.4376 -1.39936,2.4488 -1.26447,6.1896 0.125,9.3437 0.0729,4.3424 2.09545,5.8437 4.4375,5.8437 0.52229,0 1.04814,-0.2876 1.53125,-0.75 0.72511,-0.2574 1.734,-0.9716 2.4375,-2.9062 0.36027,-0.9908 0.41493,-2.3662 0.3125,-3.875 0.29605,-2.4338 0.006,-4.8592 -1.25,-6.1875 -0.52013,-1.5594 -1.15176,-2.9624 -1.8125,-3.9063 -1.86125,-2.6589 -1.15446,-7.1792 -1.96875,-7.25 z m -11.625,9.5626 c -1.13419,-0.058 -1.59375,1.3437 -1.59375,1.3437 -0.91163,4.2543 -0.59589,8.181 1.53125,5.75 2.12714,-2.431 2.11314,-6.3611 0.59375,-6.9687 -0.18992,-0.076 -0.36922,-0.1167 -0.53125,-0.125 z m -1.15625,21.4062 c -3.48052,0 -3.46875,0.75 -3.46875,0.75 -5.41414,8.1213 -0.38291,19.7304 5.03125,16.25 5.41414,-3.4807 1.91802,-17 -1.5625,-17 z"
         transform="matrix(0.26458334,0,0,0.26458334,-117.2731,-1025.9167)"
         id="path18423"
         inkscape:connector-curvature="0" />
      <path
         style="color:#000000;fill:#f10000;fill-opacity:1;fill-rule:nonzero;stroke:none;stroke-width:20;marker:none;visibility:visible;display:inline;overflow:visible;enable-background:accumulate"
         d="m 112.03125,4449.375 c -0.49669,0.047 -0.74586,0.2664 -0.625,0.75 0.64464,2.5785 0,4.0938 0,4.0938 0.64464,10.7434 11.18036,35.1881 16.11313,46.1508 4.84799,10.7742 -4.00283,-12.7233 5.79312,16.3804 0.0223,0.088 0.0403,0.1632 0.0625,0.25 0.0104,0.01 0.0209,0.021 0.0312,0.031 1.68653,3.435 5.04055,16.1764 6.76885,15.9105 3.95039,-0.6077 2.63603,14.4702 3.56628,-20.9525 0.2265,-10.5344 -6.03768,-21.5452 -8.71013,-29.6142 -2.3636,-7.3057 -7.31587,-18.7023 -10.96875,-24.7188 -2.96793,-4.8882 -9.87894,-8.4817 -12.03125,-8.2812 z m 29.9375,91.75 c -0.1144,-0.01 -0.24205,0.012 -0.375,0.031 -2.12714,0.3039 -1.8125,1.8126 -1.8125,1.8126 -0.91163,3.3425 1.83837,6.3911 2.75,3.6562 0.85465,-2.564 1.15349,-5.4065 -0.5625,-5.5 z"
         transform="matrix(0.26458334,0,0,0.26458334,-117.2731,-1025.9167)"
         id="path18425"
         inkscape:connector-curvature="0"
         sodipodi:nodetypes="cccscccccccccccsccc" />
      <path
         style="color:#000000;fill:#f10000;fill-opacity:1;fill-rule:nonzero;stroke:none;stroke-width:20;marker:none;visibility:visible;display:inline;overflow:visible;enable-background:accumulate"
         d="m 138.625,4447.3125 c -2.71948,0 -3.8125,3.25 -3.8125,3.25 1.5041,8.8098 6.71047,17.8912 8.8125,27.0937 0.8423,3.6876 3.06724,6.3195 5.42567,14.9699 0.73991,2.7139 6.68504,11.7959 7.09478,16.2812 1.1671,0.9706 -0.38601,-4.2003 0.35455,-5.1261 2.24589,-2.782 0.5608,8.9911 1.71768,-13.209 -0.40177,-4.2537 -0.88568,-7.6588 -1.3125,-8.5625 -0.10012,-0.8351 -0.22575,-1.6756 -0.375,-2.5312 -3.22311,-18.4793 -9.46699,-26.9858 -14.62393,-30.8535 -1.28923,-0.9669 -2.37476,-1.3125 -3.28125,-1.3125 z"
         transform="matrix(0.26458334,0,0,0.26458334,-117.2731,-1025.9167)"
         id="path18427"
         inkscape:connector-curvature="0"
         sodipodi:nodetypes="scsscccccss" />
      <g
         transform="translate(116.81154,0)"
         id="g18429">
        <g
           id="g18431">
          <g
             id="g18433">
            <g
               transform="translate(-32.321084,8.3616734)"
               id="g18435">
              <g
                 id="g18437"
                 transform="translate(-52.42126,0)">
                <path
                   style="opacity:0;color:#000000;fill:#b80000;fill-opacity:1;fill-rule:nonzero;stroke:none;stroke-width:20;marker:none;visibility:visible;display:inline;overflow:visible;enable-background:accumulate"
                   d="m -128.2616,136.53044 25.69264,0 0,54.75629 -25.69264,0 z"
                   id="rect18439"
                   inkscape:connector-curvature="0"
                   sodipodi:nodetypes="ccccc" />
                <g
                   id="g18441">
                  <g
                     id="g18443">
                    <path
                       style="color:#000000;fill:#550000;fill-opacity:1;fill-rule:nonzero;stroke:none;stroke-width:20;marker:none;visibility:visible;display:inline;overflow:visible;enable-background:accumulate"
                       d="m -124.62114,148.74112 c 4.82404,11.25607 6.03005,17.76855 6.67325,17.60773 0.64321,-0.16081 -0.98628,-9.3187 -2.17081,-12.62292 -1.52762,-4.26123 -4.66325,-8.76367 -6.19086,-10.37167 -1.52761,-1.60803 1.68842,5.38686 1.68842,5.38686 z"
                       id="path18445"
                       inkscape:connector-curvature="0"
                       sodipodi:nodetypes="csssc" />
                    <path
                       style="color:#000000;fill:#7d0000;fill-opacity:1;fill-rule:nonzero;stroke:none;stroke-width:20;marker:none;visibility:visible;display:inline;overflow:visible;enable-background:accumulate"
                       d="m -468.85345,4436.6023 c 7.52056,13.537 18.90885,51.9993 18.04935,48.5614 -0.85949,-3.438 -3.65284,-23.851 -7.52056,-31.1567 -3.86772,-7.3056 -10.52879,-17.4047 -10.52879,-17.4047 z"
                       id="path18447"
                       inkscape:connector-curvature="0"
                       transform="matrix(0.26458334,0,0,0.26458334,-5e-5,-1025.9167)" />
                  </g>
                  <g
                     id="g18449">
                    <path
                       sodipodi:nodetypes="ccssc"
                       inkscape:connector-curvature="0"
                       id="path18451"
                       d="m -117.38508,150.75113 c 2.57282,5.30643 2.83368,7.69729 5.54764,16.08012 0.96481,-1.36682 0.42456,-8.9864 -2.97482,-17.36656 -2.73447,-6.74105 -6.35166,-9.88928 -7.87927,-11.49728 -1.52761,-1.60803 2.33163,4.90446 5.30645,12.78372 z"
                       style="color:#000000;fill:#550000;fill-opacity:1;fill-rule:nonzero;stroke:none;stroke-width:20;marker:none;visibility:visible;display:inline;overflow:visible;enable-background:accumulate" />
                    <path
                       sodipodi:nodetypes="cssssc"
                       style="color:#000000;fill:#7d0000;fill-opacity:1;fill-rule:nonzero;stroke:none;stroke-width:20;marker:none;visibility:visible;display:inline;overflow:visible;enable-background:accumulate"
                       d="m -457.58068,4410.1999 c 6.91287,11.0678 29.33827,68.5176 31.48701,77.7571 2.14873,9.2396 3.65284,13.537 2.3636,6.876 -1.28924,-6.6611 -6.01645,-35.4541 -12.46265,-49.6358 -6.44619,-14.1816 -10.8565,-20.4867 -13.43498,-26.0734 -2.57848,-5.5867 -14.12579,-19.8127 -7.95298,-8.9239 z"
                       id="path18453"
                       inkscape:connector-curvature="0"
                       transform="matrix(0.26458334,0,0,0.26458334,-5e-5,-1025.9167)" />
                  </g>
                  <g
                     id="g18455">
                    <path
                       style="color:#000000;fill:#550000;fill-opacity:1;fill-rule:nonzero;stroke:none;stroke-width:20;marker:none;visibility:visible;display:inline;overflow:visible;enable-background:accumulate"
                       d="m -112.31492,146.27218 c 3.13758,5.41906 4.27204,14.99692 4.63014,14.37331 0.35811,-0.62362 0.44652,-5.7118 -0.94283,-10.94613 -1.38933,-5.23432 -4.5651,-8.0555 -6.32792,-9.60676 -2.26294,-1.258 0.30899,2.56154 2.64061,6.17958 z"
                       id="path18457"
                       inkscape:connector-curvature="0"
                       sodipodi:nodetypes="ccscc" />
                    <path
                       style="color:#000000;fill:#7d0000;fill-opacity:1;fill-rule:nonzero;stroke:none;stroke-width:20;marker:none;visibility:visible;display:inline;overflow:visible;enable-background:accumulate"
                       d="m -113.53326,142.98824 c 2.61518,2.89946 4.43444,8.52778 4.94611,10.51761 0.51167,1.9898 -0.28426,-4.09334 -1.47815,-5.91259 -1.19389,-1.81928 -3.46796,-4.60502 -3.46796,-4.60502 z"
                       id="path18459"
                       inkscape:connector-curvature="0" />
                  </g>
                </g>
              </g>
            </g>
          </g>
        </g>
      </g>
    </g>
    <g
       transform="matrix(3.624013,0,0,3.9529206,864.10138,-689.29002)"
       id="g18501"
       style="opacity:0.67699118"
       inkscape:export-filename="C:\Users\rober\Desktop\assets\ASSETS_2020\blood_effects_2\claw_slash\keyframes\claw_slash_11.png"
       inkscape:export-xdpi="90"
       inkscape:export-ydpi="90">
      <path
         style="color:#000000;fill:#f10000;fill-opacity:1;fill-rule:nonzero;stroke:none;stroke-width:20;marker:none;visibility:visible;display:inline;overflow:visible;enable-background:accumulate"
         d="m 241.75,4447.3125 c -2.71948,0 -3.8125,3.25 -3.8125,3.25 1.5041,8.8098 6.71047,17.8912 8.8125,27.0937 0.8423,3.6877 3.07907,6.3184 5.4375,14.9688 0.17064,0.6259 0.65747,1.6124 1.25,2.7812 1.35313,2.0208 2.58618,3.0764 3.34375,1.6876 1.3636,-2.4999 3.0651,-7.2154 4.21875,-9.8126 -10e-4,-0.011 10e-4,-0.02 0,-0.031 -0.31427,-2.6232 -0.66175,-4.6 -0.96875,-5.25 -0.10012,-0.8351 -0.22575,-1.6756 -0.375,-2.5312 -3.22311,-18.4793 -9.46806,-26.9761 -14.625,-30.8438 -1.28923,-0.9669 -2.37476,-1.3125 -3.28125,-1.3125 z m -26.59375,2.0625 c -0.49669,0.047 -0.74586,0.2664 -0.625,0.75 0.64464,2.5785 0,4.0938 0,4.0938 0.64464,10.7434 11.18301,35.1977 16.125,46.1562 2.04672,4.5384 4.93565,9.4279 7,13.125 0.78774,0.4713 1.47314,0.5517 2.09375,0 2.73489,-2.431 0.92888,-10.6509 0.625,-20.375 -0.0693,-2.2173 -0.29167,-4.3465 -0.5625,-6.3438 -0.61625,-1.5334 -1.19976,-3.0279 -1.65625,-4.4062 -2.3636,-7.3057 -7.31587,-18.7023 -10.96875,-24.7188 -2.96793,-4.8882 -9.87894,-8.4817 -12.03125,-8.2812 z M 193.75,4459.5938 c -0.92365,0 -1.40625,0.25 -1.40625,0.25 -1.04676,7.1965 8.43434,27.2807 13.67563,38.3502 1.79945,2.3545 1.88777,6.1148 3.66812,8.306 3.95039,4.862 6.07761,14.5819 8.8125,13.0625 2.22355,-1.2353 0.43601,-13.4268 -0.3125,-21.4063 -2.69552,-11.2754 -8.01216,-22.514 -12.625,-29.1874 -5.64071,-8.1478 -9.78047,-9.3874 -11.8125,-9.375 z m 68,61.75 c -0.92539,-0.1029 -1.75,1.2187 -1.75,1.2187 -0.21487,3.438 0.85926,5.5666 1.71875,4.0625 0.85949,-1.5041 1.51186,-4.5117 0.4375,-5.1562 -0.1343,-0.081 -0.27405,-0.1104 -0.40625,-0.125 z m -40.4375,13.7187 c -1.21459,-0.089 -1.0625,2.75 -1.0625,2.75 -0.64462,6.4462 1.70689,10.7347 2.78125,8.1563 1.07437,-2.5785 1.73861,-8.1639 -0.625,-10.3126 -0.44317,-0.4028 -0.81346,-0.5732 -1.09375,-0.5937 z m 24.125,7.4375 c -0.0793,0 -0.18724,0 -0.28125,0.031 -1.50411,0.4298 -1.71875,1.7188 -1.71875,1.7188 -0.21487,1.9339 1.07801,3.2267 1.9375,1.9375 0.80578,-1.2087 1.25149,-3.73 0.0625,-3.6875 z m 15.875,13.3125 c -0.88426,0.1645 -1.53125,1.9687 -1.53125,1.9687 -0.85949,4.2975 1.50775,7.5395 1.9375,4.5313 0.42975,-3.0083 1.07437,-6.039 0,-6.4687 -0.1343,-0.054 -0.27993,-0.055 -0.40625,-0.031 z m -15.0625,4.125 c -1.50412,0.2148 -1.71875,1.5 -1.71875,1.5 -0.64462,3.438 1.289,4.0979 1.71875,2.5937 0.42974,-1.5042 1.50411,-4.3086 0,-4.0937 z m -24.9375,1.2813 c 0,4.0825 2.16013,5.5823 2.375,3.2187 0.21488,-2.3636 -2.375,-3.2187 -2.375,-3.2187 z M 222.25,4584.5 c -1.11801,0.1511 -1.375,1 -1.375,1 -0.64462,3.8677 2.60538,6.2267 3.25,4.9375 0.64462,-1.2893 1.92611,-5.1367 -0.4375,-5.7813 -0.5909,-0.1611 -1.06483,-0.2066 -1.4375,-0.1562 z m 36.1875,8 c -1.37417,-0.027 -1.65625,2.6875 -1.65625,2.6875 -1.28923,5.5867 0.85902,11.3676 3.4375,9.2187 2.57848,-2.1486 1.70735,-9.4412 -0.65625,-11.375 -0.44318,-0.3626 -0.80788,-0.5251 -1.125,-0.5312 z m -37.15625,5.4062 c -3.74266,0.1234 -4.90625,5.2188 -4.90625,5.2188 -0.21487,6.8759 3.00728,11.1684 6.875,8.375 3.86771,-2.7933 4.93821,-11.5935 -0.21875,-13.3125 -0.64462,-0.2149 -1.21533,-0.2989 -1.75,-0.2813 z M 244.5,4614.4375 c -0.1365,0 -0.27195,0.04 -0.40625,0.094 -2.14873,0.8595 -1.71875,2.5626 -1.71875,2.5626 -1.07437,4.0825 2.99976,8.1761 4.71875,5.8124 1.61154,-2.2157 -0.54626,-8.4128 -2.59375,-8.4687 z"
         transform="matrix(0.26458334,0,0,0.26458334,-144.562,-1025.9167)"
         id="path18503"
         inkscape:connector-curvature="0"
         sodipodi:nodetypes="sccsccccccsscccsccscccccccsscccccsccccscccccccscscsccsccscccccccccsccccccccccc" />
      <g
         id="g18509"
         transform="translate(116.81154,0)">
        <g
           id="g18511">
          <g
             id="g18513">
            <g
               id="g18515"
               transform="translate(-32.321084,8.3616734)">
              <g
                 transform="translate(-52.42126,0)"
                 id="g18517">
                <path
                   style="opacity:0;color:#000000;fill:#b80000;fill-opacity:1;fill-rule:nonzero;stroke:none;stroke-width:20;marker:none;visibility:visible;display:inline;overflow:visible;enable-background:accumulate"
                   d="m -128.2616,136.53044 25.69264,0 0,54.75629 -25.69264,0 z"
                   id="rect18519"
                   inkscape:connector-curvature="0"
                   sodipodi:nodetypes="ccccc" />
                <g
                   id="g18521">
                  <g
                     id="g18523">
                    <path
                       sodipodi:nodetypes="csssc"
                       inkscape:connector-curvature="0"
                       id="path18525"
                       d="m -124.62114,148.74112 c 4.82404,11.25607 6.03005,17.76855 6.67325,17.60773 0.64321,-0.16081 -0.98628,-9.3187 -2.17081,-12.62292 -1.52762,-4.26123 -4.66325,-8.76367 -6.19086,-10.37167 -1.52761,-1.60803 1.68842,5.38686 1.68842,5.38686 z"
                       style="color:#000000;fill:#550000;fill-opacity:1;fill-rule:nonzero;stroke:none;stroke-width:20;marker:none;visibility:visible;display:inline;overflow:visible;enable-background:accumulate" />
                    <path
                       transform="matrix(0.26458334,0,0,0.26458334,-5e-5,-1025.9167)"
                       inkscape:connector-curvature="0"
                       id="path18527"
                       d="m -468.85345,4436.6023 c 7.52056,13.537 18.90885,51.9993 18.04935,48.5614 -0.85949,-3.438 -3.65284,-23.851 -7.52056,-31.1567 -3.86772,-7.3056 -10.52879,-17.4047 -10.52879,-17.4047 z"
                       style="color:#000000;fill:#7d0000;fill-opacity:1;fill-rule:nonzero;stroke:none;stroke-width:20;marker:none;visibility:visible;display:inline;overflow:visible;enable-background:accumulate" />
                  </g>
                  <g
                     id="g18529">
                    <path
                       style="color:#000000;fill:#550000;fill-opacity:1;fill-rule:nonzero;stroke:none;stroke-width:20;marker:none;visibility:visible;display:inline;overflow:visible;enable-background:accumulate"
                       d="m -117.38508,150.75113 c 2.57282,5.30643 2.83368,7.69729 5.54764,16.08012 0.96481,-1.36682 0.42456,-8.9864 -2.97482,-17.36656 -2.73447,-6.74105 -6.35166,-9.88928 -7.87927,-11.49728 -1.52761,-1.60803 2.33163,4.90446 5.30645,12.78372 z"
                       id="path18531"
                       inkscape:connector-curvature="0"
                       sodipodi:nodetypes="ccssc" />
                    <path
                       transform="matrix(0.26458334,0,0,0.26458334,-5e-5,-1025.9167)"
                       inkscape:connector-curvature="0"
                       id="path18533"
                       d="m -457.58068,4410.1999 c 6.91287,11.0678 29.33827,68.5176 31.48701,77.7571 2.14873,9.2396 3.65284,13.537 2.3636,6.876 -1.28924,-6.6611 -6.01645,-35.4541 -12.46265,-49.6358 -6.44619,-14.1816 -10.8565,-20.4867 -13.43498,-26.0734 -2.57848,-5.5867 -14.12579,-19.8127 -7.95298,-8.9239 z"
                       style="color:#000000;fill:#7d0000;fill-opacity:1;fill-rule:nonzero;stroke:none;stroke-width:20;marker:none;visibility:visible;display:inline;overflow:visible;enable-background:accumulate"
                       sodipodi:nodetypes="cssssc" />
                  </g>
                  <g
                     id="g18535">
                    <path
                       sodipodi:nodetypes="ccscc"
                       inkscape:connector-curvature="0"
                       id="path18537"
                       d="m -112.31492,146.27218 c 3.13758,5.41906 4.27204,14.99692 4.63014,14.37331 0.35811,-0.62362 0.44652,-5.7118 -0.94283,-10.94613 -1.38933,-5.23432 -4.5651,-8.0555 -6.32792,-9.60676 -2.26294,-1.258 0.30899,2.56154 2.64061,6.17958 z"
                       style="color:#000000;fill:#550000;fill-opacity:1;fill-rule:nonzero;stroke:none;stroke-width:20;marker:none;visibility:visible;display:inline;overflow:visible;enable-background:accumulate" />
                    <path
                       inkscape:connector-curvature="0"
                       id="path18539"
                       d="m -113.53326,142.98824 c 2.61518,2.89946 4.43444,8.52778 4.94611,10.51761 0.51167,1.9898 -0.28426,-4.09334 -1.47815,-5.91259 -1.19389,-1.81928 -3.46796,-4.60502 -3.46796,-4.60502 z"
                       style="color:#000000;fill:#7d0000;fill-opacity:1;fill-rule:nonzero;stroke:none;stroke-width:20;marker:none;visibility:visible;display:inline;overflow:visible;enable-background:accumulate" />
                  </g>
                </g>
              </g>
            </g>
          </g>
        </g>
      </g>
    </g>
    <g
       id="g18612"
       transform="matrix(3.624013,0,0,3.9529206,330.30154,-689.29002)"
       style="opacity:0.30088495"
       inkscape:export-filename="C:\Users\rober\Desktop\assets\ASSETS_2020\blood_effects_2\claw_slash\keyframes\claw_slash_12.png"
       inkscape:export-xdpi="90"
       inkscape:export-ydpi="90">
      <g
         transform="translate(172.98789,0)"
         id="g18567">
        <path
           style="color:#000000;fill:#f10000;fill-opacity:1;fill-rule:nonzero;stroke:none;stroke-width:20;marker:none;visibility:visible;display:inline;overflow:visible;enable-background:accumulate"
           d="m 241.75,4447.3125 c -2.71948,0 -3.8125,3.25 -3.8125,3.25 1.5041,8.8098 6.71047,17.8912 8.8125,27.0937 0.8423,3.6877 3.07907,6.3184 5.4375,14.9688 0.17064,0.6259 0.65747,1.6124 1.25,2.7812 1.35313,2.0208 2.58618,3.0764 3.34375,1.6876 1.3636,-2.4999 3.0651,-7.2154 4.21875,-9.8126 -10e-4,-0.011 10e-4,-0.02 0,-0.031 -0.31427,-2.6232 -0.66175,-4.6 -0.96875,-5.25 -0.10012,-0.8351 -0.22575,-1.6756 -0.375,-2.5312 -3.22311,-18.4793 -9.46806,-26.9761 -14.625,-30.8438 -1.28923,-0.9669 -2.37476,-1.3125 -3.28125,-1.3125 z m -26.59375,2.0625 c -0.49669,0.047 -0.74586,0.2664 -0.625,0.75 0.64464,2.5785 0,4.0938 0,4.0938 0.64464,10.7434 11.18301,35.1977 16.125,46.1562 2.04672,4.5384 4.93565,9.4279 7,13.125 0.78774,0.4713 1.47314,0.5517 2.09375,0 2.73489,-2.431 0.92888,-10.6509 0.625,-20.375 -0.0693,-2.2173 -0.29167,-4.3465 -0.5625,-6.3438 -0.61625,-1.5334 -1.19976,-3.0279 -1.65625,-4.4062 -2.3636,-7.3057 -7.31587,-18.7023 -10.96875,-24.7188 -2.96793,-4.8882 -9.87894,-8.4817 -12.03125,-8.2812 z M 193.75,4459.5938 c -0.92365,0 -1.40625,0.25 -1.40625,0.25 -1.04676,7.1965 8.43434,27.2807 13.67563,38.3502 1.79945,2.3545 1.88777,6.1148 3.66812,8.306 10.80142,21.2399 10.03984,7.6525 8.5,-8.3438 -2.69552,-11.2754 -8.01216,-22.514 -12.625,-29.1874 -5.64071,-8.1478 -9.78047,-9.3874 -11.8125,-9.375 z"
           transform="matrix(0.26458334,0,0,0.26458334,-144.562,-1025.9167)"
           id="path18569"
           inkscape:connector-curvature="0"
           sodipodi:nodetypes="cccsccccccsscccsccscccccccscccc" />
        <g
           id="g18571"
           transform="translate(116.81154,0)">
          <g
             id="g18573">
            <g
               id="g18575">
              <g
                 id="g18577"
                 transform="translate(-32.321084,8.3616734)">
                <g
                   transform="translate(-52.42126,0)"
                   id="g18579">
                  <path
                     style="opacity:0;color:#000000;fill:#b80000;fill-opacity:1;fill-rule:nonzero;stroke:none;stroke-width:20;marker:none;visibility:visible;display:inline;overflow:visible;enable-background:accumulate"
                     d="m -128.2616,136.53044 25.69264,0 0,54.75629 -25.69264,0 z"
                     id="rect18581"
                     inkscape:connector-curvature="0"
                     sodipodi:nodetypes="ccccc" />
                  <g
                     id="g18583">
                    <g
                       id="g18585">
                      <path
                         sodipodi:nodetypes="csssc"
                         inkscape:connector-curvature="0"
                         id="path18587"
                         d="m -124.62114,148.74112 c 4.82404,11.25607 6.03005,17.76855 6.67325,17.60773 0.64321,-0.16081 -0.98628,-9.3187 -2.17081,-12.62292 -1.52762,-4.26123 -4.66325,-8.76367 -6.19086,-10.37167 -1.52761,-1.60803 1.68842,5.38686 1.68842,5.38686 z"
                         style="color:#000000;fill:#550000;fill-opacity:1;fill-rule:nonzero;stroke:none;stroke-width:20;marker:none;visibility:visible;display:inline;overflow:visible;enable-background:accumulate" />
                      <path
                         transform="matrix(0.26458334,0,0,0.26458334,-5e-5,-1025.9167)"
                         inkscape:connector-curvature="0"
                         id="path18589"
                         d="m -468.85345,4436.6023 c 7.52056,13.537 18.90885,51.9993 18.04935,48.5614 -0.85949,-3.438 -3.65284,-23.851 -7.52056,-31.1567 -3.86772,-7.3056 -10.52879,-17.4047 -10.52879,-17.4047 z"
                         style="color:#000000;fill:#7d0000;fill-opacity:1;fill-rule:nonzero;stroke:none;stroke-width:20;marker:none;visibility:visible;display:inline;overflow:visible;enable-background:accumulate" />
                    </g>
                    <g
                       id="g18591">
                      <path
                         style="color:#000000;fill:#550000;fill-opacity:1;fill-rule:nonzero;stroke:none;stroke-width:20;marker:none;visibility:visible;display:inline;overflow:visible;enable-background:accumulate"
                         d="m -117.38508,150.75113 c 2.57282,5.30643 2.83368,7.69729 5.54764,16.08012 0.96481,-1.36682 0.42456,-8.9864 -2.97482,-17.36656 -2.73447,-6.74105 -6.35166,-9.88928 -7.87927,-11.49728 -1.52761,-1.60803 2.33163,4.90446 5.30645,12.78372 z"
                         id="path18593"
                         inkscape:connector-curvature="0"
                         sodipodi:nodetypes="ccssc" />
                      <path
                         transform="matrix(0.26458334,0,0,0.26458334,-5e-5,-1025.9167)"
                         inkscape:connector-curvature="0"
                         id="path18595"
                         d="m -457.58068,4410.1999 c 6.91287,11.0678 29.33827,68.5176 31.48701,77.7571 2.14873,9.2396 3.65284,13.537 2.3636,6.876 -1.28924,-6.6611 -6.01645,-35.4541 -12.46265,-49.6358 -6.44619,-14.1816 -10.8565,-20.4867 -13.43498,-26.0734 -2.57848,-5.5867 -14.12579,-19.8127 -7.95298,-8.9239 z"
                         style="color:#000000;fill:#7d0000;fill-opacity:1;fill-rule:nonzero;stroke:none;stroke-width:20;marker:none;visibility:visible;display:inline;overflow:visible;enable-background:accumulate"
                         sodipodi:nodetypes="cssssc" />
                    </g>
                    <g
                       id="g18597">
                      <path
                         sodipodi:nodetypes="ccscc"
                         inkscape:connector-curvature="0"
                         id="path18599"
                         d="m -112.31492,146.27218 c 3.13758,5.41906 4.27204,14.99692 4.63014,14.37331 0.35811,-0.62362 0.44652,-5.7118 -0.94283,-10.94613 -1.38933,-5.23432 -4.5651,-8.0555 -6.32792,-9.60676 -2.26294,-1.258 0.30899,2.56154 2.64061,6.17958 z"
                         style="color:#000000;fill:#550000;fill-opacity:1;fill-rule:nonzero;stroke:none;stroke-width:20;marker:none;visibility:visible;display:inline;overflow:visible;enable-background:accumulate" />
                      <path
                         inkscape:connector-curvature="0"
                         id="path18601"
                         d="m -113.53326,142.98824 c 2.61518,2.89946 4.43444,8.52778 4.94611,10.51761 0.51167,1.9898 -0.28426,-4.09334 -1.47815,-5.91259 -1.19389,-1.81928 -3.46796,-4.60502 -3.46796,-4.60502 z"
                         style="color:#000000;fill:#7d0000;fill-opacity:1;fill-rule:nonzero;stroke:none;stroke-width:20;marker:none;visibility:visible;display:inline;overflow:visible;enable-background:accumulate" />
                    </g>
                  </g>
                </g>
              </g>
            </g>
          </g>
        </g>
      </g>
      <path
         id="path18603"
         transform="matrix(0.26458334,0,0,0.26458334,-5e-5,-1025.9167)"
         d="m 329.625,4538.875 c -1.50411,0 -1.3125,1.0938 -1.3125,1.0938 -0.42975,4.942 1.94525,6.219 2.375,4.5 0.42974,-1.7191 0.44161,-5.5938 -1.0625,-5.5938 z m 38.25,58.8438 c -0.0797,-0.01 -0.13817,0 -0.21875,0.031 -1.28924,0.4297 -1.71875,1.2812 -1.71875,1.2812 -1.93386,2.7934 -0.0237,7.1175 2.125,4.9688 2.01444,-2.0144 1.00857,-6.1318 -0.1875,-6.2812 z m -38.46875,5.3124 c -1.79972,-0.044 -3.21875,1.375 -3.21875,1.375 -0.64462,4.9422 1.69501,10.5473 3.84375,7.9688 2.14873,-2.5784 3.01985,-7.957 0.65625,-9.0312 -0.44318,-0.2015 -0.86593,-0.3023 -1.28125,-0.3126 z m 23.84375,16 c -1.71899,0 -1.9375,1.0626 -1.9375,1.0626 -0.64462,1.9337 0.64826,4.3204 1.9375,3.0312 1.28924,-1.2892 1.71898,-4.0938 0,-4.0938 z"
         style="color:#000000;fill:#f10000;fill-opacity:1;fill-rule:nonzero;stroke:none;stroke-width:1;marker:none;visibility:visible;display:inline;overflow:visible;enable-background:accumulate"
         inkscape:connector-curvature="0" />
    </g>
    <g
       style="opacity:0.07964603"
       transform="matrix(3.624013,0,0,3.9529206,423.412,-689.29002)"
       id="g18647"
       inkscape:export-filename="C:\Users\rober\Desktop\assets\ASSETS_2020\blood_effects_2\claw_slash\keyframes\claw_slash_13.png"
       inkscape:export-xdpi="90"
       inkscape:export-ydpi="90">
      <g
         id="g18649"
         transform="translate(172.98789,0)">
        <path
           sodipodi:nodetypes="cccsccccccsscccsccscccccccscccc"
           inkscape:connector-curvature="0"
           id="path18651"
           transform="matrix(0.26458334,0,0,0.26458334,-144.562,-1025.9167)"
           d="m 241.75,4447.3125 c -2.71948,0 -3.8125,3.25 -3.8125,3.25 1.5041,8.8098 6.71047,17.8912 8.8125,27.0937 0.8423,3.6877 3.07907,6.3184 5.4375,14.9688 0.17064,0.6259 0.65747,1.6124 1.25,2.7812 1.35313,2.0208 2.58618,3.0764 3.34375,1.6876 1.3636,-2.4999 3.0651,-7.2154 4.21875,-9.8126 -10e-4,-0.011 10e-4,-0.02 0,-0.031 -0.31427,-2.6232 -0.66175,-4.6 -0.96875,-5.25 -0.10012,-0.8351 -0.22575,-1.6756 -0.375,-2.5312 -3.22311,-18.4793 -9.46806,-26.9761 -14.625,-30.8438 -1.28923,-0.9669 -2.37476,-1.3125 -3.28125,-1.3125 z m -26.59375,2.0625 c -0.49669,0.047 -0.74586,0.2664 -0.625,0.75 0.64464,2.5785 0,4.0938 0,4.0938 0.64464,10.7434 11.18301,35.1977 16.125,46.1562 2.04672,4.5384 4.93565,9.4279 7,13.125 0.78774,0.4713 1.47314,0.5517 2.09375,0 2.73489,-2.431 0.92888,-10.6509 0.625,-20.375 -0.0693,-2.2173 -0.29167,-4.3465 -0.5625,-6.3438 -0.61625,-1.5334 -1.19976,-3.0279 -1.65625,-4.4062 -2.3636,-7.3057 -7.31587,-18.7023 -10.96875,-24.7188 -2.96793,-4.8882 -9.87894,-8.4817 -12.03125,-8.2812 z M 193.75,4459.5938 c -0.92365,0 -1.40625,0.25 -1.40625,0.25 -1.04676,7.1965 8.43434,27.2807 13.67563,38.3502 1.79945,2.3545 1.88777,6.1148 3.66812,8.306 10.80142,21.2399 10.03984,7.6525 8.5,-8.3438 -2.69552,-11.2754 -8.01216,-22.514 -12.625,-29.1874 -5.64071,-8.1478 -9.78047,-9.3874 -11.8125,-9.375 z"
           style="color:#000000;fill:#f10000;fill-opacity:1;fill-rule:nonzero;stroke:none;stroke-width:20;marker:none;visibility:visible;display:inline;overflow:visible;enable-background:accumulate" />
        <g
           transform="translate(116.81154,0)"
           id="g18653">
          <g
             id="g18655">
            <g
               id="g18657">
              <g
                 transform="translate(-32.321084,8.3616734)"
                 id="g18659">
                <g
                   id="g18661"
                   transform="translate(-52.42126,0)">
                  <path
                     sodipodi:nodetypes="ccccc"
                     inkscape:connector-curvature="0"
                     id="path18663"
                     d="m -128.2616,136.53044 25.69264,0 0,54.75629 -25.69264,0 z"
                     style="opacity:0;color:#000000;fill:#b80000;fill-opacity:1;fill-rule:nonzero;stroke:none;stroke-width:20;marker:none;visibility:visible;display:inline;overflow:visible;enable-background:accumulate" />
                  <g
                     id="g18665">
                    <g
                       id="g18667">
                      <path
                         style="color:#000000;fill:#550000;fill-opacity:1;fill-rule:nonzero;stroke:none;stroke-width:20;marker:none;visibility:visible;display:inline;overflow:visible;enable-background:accumulate"
                         d="m -124.62114,148.74112 c 4.82404,11.25607 6.03005,17.76855 6.67325,17.60773 0.64321,-0.16081 -0.98628,-9.3187 -2.17081,-12.62292 -1.52762,-4.26123 -4.66325,-8.76367 -6.19086,-10.37167 -1.52761,-1.60803 1.68842,5.38686 1.68842,5.38686 z"
                         id="path18669"
                         inkscape:connector-curvature="0"
                         sodipodi:nodetypes="csssc" />
                      <path
                         style="color:#000000;fill:#7d0000;fill-opacity:1;fill-rule:nonzero;stroke:none;stroke-width:20;marker:none;visibility:visible;display:inline;overflow:visible;enable-background:accumulate"
                         d="m -468.85345,4436.6023 c 7.52056,13.537 18.90885,51.9993 18.04935,48.5614 -0.85949,-3.438 -3.65284,-23.851 -7.52056,-31.1567 -3.86772,-7.3056 -10.52879,-17.4047 -10.52879,-17.4047 z"
                         id="path18671"
                         inkscape:connector-curvature="0"
                         transform="matrix(0.26458334,0,0,0.26458334,-5e-5,-1025.9167)" />
                    </g>
                    <g
                       id="g18673">
                      <path
                         sodipodi:nodetypes="ccssc"
                         inkscape:connector-curvature="0"
                         id="path18675"
                         d="m -117.38508,150.75113 c 2.57282,5.30643 2.83368,7.69729 5.54764,16.08012 0.96481,-1.36682 0.42456,-8.9864 -2.97482,-17.36656 -2.73447,-6.74105 -6.35166,-9.88928 -7.87927,-11.49728 -1.52761,-1.60803 2.33163,4.90446 5.30645,12.78372 z"
                         style="color:#000000;fill:#550000;fill-opacity:1;fill-rule:nonzero;stroke:none;stroke-width:20;marker:none;visibility:visible;display:inline;overflow:visible;enable-background:accumulate" />
                      <path
                         sodipodi:nodetypes="cssssc"
                         style="color:#000000;fill:#7d0000;fill-opacity:1;fill-rule:nonzero;stroke:none;stroke-width:20;marker:none;visibility:visible;display:inline;overflow:visible;enable-background:accumulate"
                         d="m -457.58068,4410.1999 c 6.91287,11.0678 29.33827,68.5176 31.48701,77.7571 2.14873,9.2396 3.65284,13.537 2.3636,6.876 -1.28924,-6.6611 -6.01645,-35.4541 -12.46265,-49.6358 -6.44619,-14.1816 -10.8565,-20.4867 -13.43498,-26.0734 -2.57848,-5.5867 -14.12579,-19.8127 -7.95298,-8.9239 z"
                         id="path18677"
                         inkscape:connector-curvature="0"
                         transform="matrix(0.26458334,0,0,0.26458334,-5e-5,-1025.9167)" />
                    </g>
                    <g
                       id="g18679">
                      <path
                         style="color:#000000;fill:#550000;fill-opacity:1;fill-rule:nonzero;stroke:none;stroke-width:20;marker:none;visibility:visible;display:inline;overflow:visible;enable-background:accumulate"
                         d="m -112.31492,146.27218 c 3.13758,5.41906 4.27204,14.99692 4.63014,14.37331 0.35811,-0.62362 0.44652,-5.7118 -0.94283,-10.94613 -1.38933,-5.23432 -4.5651,-8.0555 -6.32792,-9.60676 -2.26294,-1.258 0.30899,2.56154 2.64061,6.17958 z"
                         id="path18681"
                         inkscape:connector-curvature="0"
                         sodipodi:nodetypes="ccscc" />
                      <path
                         style="color:#000000;fill:#7d0000;fill-opacity:1;fill-rule:nonzero;stroke:none;stroke-width:20;marker:none;visibility:visible;display:inline;overflow:visible;enable-background:accumulate"
                         d="m -113.53326,142.98824 c 2.61518,2.89946 4.43444,8.52778 4.94611,10.51761 0.51167,1.9898 -0.28426,-4.09334 -1.47815,-5.91259 -1.19389,-1.81928 -3.46796,-4.60502 -3.46796,-4.60502 z"
                         id="path18683"
                         inkscape:connector-curvature="0" />
                    </g>
                  </g>
                </g>
              </g>
            </g>
          </g>
        </g>
      </g>
    </g>
    <g
       transform="matrix(3.624013,0,0,3.9529206,491.65959,-689.29002)"
       id="g18285"
       inkscape:export-filename="C:\Users\rober\Desktop\assets\ASSETS_2020\blood_effects_2\claw_slash\keyframes\claw_slash_07.png"
       inkscape:export-xdpi="90"
       inkscape:export-ydpi="90">
      <path
         sodipodi:nodetypes="ccccsssscsssscscc"
         id="path18287"
         d="m -93.294864,154.01752 c -0.244382,0.001 -0.37207,0.0662 -0.37207,0.0662 -0.321601,2.21102 2.573703,9.89735 3.819922,11.94758 0.18174,0.29898 0.379497,0.55052 0.587044,0.76893 0.472675,1.30714 1.368114,3.23564 1.486911,4.14875 0.05896,0.45316 0.447123,1.22455 0.73417,2.29175 0.212797,0.79116 0.370022,3.3529 0.296349,4.46007 -0.06807,1.02295 -1.295417,2.18775 -1.458904,3.66426 -0.156851,1.41657 0.38844,2.50847 1.83688,2.50847 1.957886,-7.7e-4 2.396016,-1.08828 2.163819,-2.8085 -0.170838,-1.26562 -0.962587,-2.16471 -1.019718,-3.84545 -0.03517,-1.03452 0.150919,-3.66308 0.09413,-4.18634 -0.08285,-0.76342 -0.336834,-1.47891 -0.544818,-3.0197 -0.257623,-1.90853 -0.50806,-4.59967 -1.546571,-6.71076 -0.482217,-2.16368 -1.36008,-4.50567 -2.951758,-6.80474 -1.492438,-2.15574 -2.587749,-2.48372 -3.125391,-2.48047 z"
         style="color:#000000;fill:#f10000;fill-opacity:1;fill-rule:nonzero;stroke:none;stroke-width:20;marker:none;visibility:visible;display:inline;overflow:visible;enable-background:accumulate"
         inkscape:connector-curvature="0" />
      <path
         sodipodi:nodetypes="cccsscscsccsscc"
         id="path18289"
         d="m -87.631127,151.3138 c -0.131416,0.0123 -0.197342,0.0705 -0.165364,0.19844 0.170561,0.68222 0,1.08315 0,1.08315 0.170561,2.84257 2.553673,9.55246 3.861263,12.45192 1.307589,2.89944 1.650516,2.50095 1.934766,4.09279 0.185861,1.04085 1.569898,11.06468 0.769227,15.44362 -0.776315,2.60486 -1.768609,4.55496 -0.521181,6.36651 1.100641,1.59842 2.735004,1.31662 3.919141,-0.33899 1.147973,-2.16263 0.138029,-2.65599 -0.587902,-6.40217 -0.969134,-5.00123 -0.261852,-12.83523 -0.382903,-14.83204 0.0081,-0.32631 -0.121265,-1.31984 -0.128901,-1.60117 -0.0568,-2.10355 -1.987392,-5.79784 -2.612761,-7.73081 -0.625369,-1.93297 -1.935657,-4.94832 -2.902148,-6.54018 -0.785265,-1.29337 -2.613803,-2.24412 -3.183269,-2.19107 z"
         style="color:#000000;fill:#f10000;fill-opacity:1;fill-rule:nonzero;stroke:none;stroke-width:20;marker:none;visibility:visible;display:inline;overflow:visible;enable-background:accumulate"
         inkscape:connector-curvature="0" />
      <path
         sodipodi:nodetypes="ccsssccsssccccc"
         id="path18291"
         d="m -80.594863,150.7681 c -0.71953,0 -1.008724,0.85989 -1.008724,0.85989 0.397959,2.33093 1.775477,4.73369 2.33164,7.16854 0.222858,0.97566 1.578846,1.39256 2.202847,3.68132 0.27603,1.01244 0.411983,3.13202 0.557997,4.55039 0.06324,0.6143 0.128366,1.90108 0.207577,2.1054 0.04192,3.72666 -1.906675,5.01549 -1.090288,6.43058 0.980192,1.69896 2.764982,1.40858 3.214847,-0.0535 0.784153,-2.54848 -1.241358,-3.19858 -0.783937,-6.53124 0.0447,-0.32567 0.06648,-1.59784 0.07025,-2.14927 0.01672,-2.44421 -0.320424,-6.52439 -0.584179,-7.08281 -0.02649,-0.22095 -0.05973,-0.44333 -0.09922,-0.66971 -0.852781,-4.88929 -2.786211,-6.93899 -4.150651,-7.96232 -0.341109,-0.25582 -0.628322,-0.34726 -0.868164,-0.34726 z"
         style="color:#000000;fill:#f10000;fill-opacity:1;fill-rule:nonzero;stroke:none;stroke-width:20;marker:none;visibility:visible;display:inline;overflow:visible;enable-background:accumulate"
         inkscape:connector-curvature="0" />
      <g
         id="g18293"
         transform="translate(116.81154,0)">
        <g
           id="g18295">
          <g
             id="g18297">
            <g
               id="g18299"
               transform="translate(-32.321084,8.3616734)">
              <g
                 transform="translate(-52.42126,0)"
                 id="g18301">
                <path
                   style="opacity:0;color:#000000;fill:#b80000;fill-opacity:1;fill-rule:nonzero;stroke:none;stroke-width:20;marker:none;visibility:visible;display:inline;overflow:visible;enable-background:accumulate"
                   d="m -128.2616,136.53044 25.69264,0 0,54.75629 -25.69264,0 z"
                   id="rect18303"
                   inkscape:connector-curvature="0"
                   sodipodi:nodetypes="ccccc" />
                <g
                   id="g18305">
                  <g
                     id="g18307">
                    <path
                       sodipodi:nodetypes="csssc"
                       inkscape:connector-curvature="0"
                       id="path18309"
                       d="m -124.62114,148.74112 c 4.82404,11.25607 6.03005,17.76855 6.67325,17.60773 0.64321,-0.16081 -0.98628,-9.3187 -2.17081,-12.62292 -1.52762,-4.26123 -4.66325,-8.76367 -6.19086,-10.37167 -1.52761,-1.60803 1.68842,5.38686 1.68842,5.38686 z"
                       style="color:#000000;fill:#550000;fill-opacity:1;fill-rule:nonzero;stroke:none;stroke-width:20;marker:none;visibility:visible;display:inline;overflow:visible;enable-background:accumulate" />
                    <path
                       transform="matrix(0.26458334,0,0,0.26458334,-5e-5,-1025.9167)"
                       inkscape:connector-curvature="0"
                       id="path18311"
                       d="m -468.85345,4436.6023 c 7.52056,13.537 18.90885,51.9993 18.04935,48.5614 -0.85949,-3.438 -3.65284,-23.851 -7.52056,-31.1567 -3.86772,-7.3056 -10.52879,-17.4047 -10.52879,-17.4047 z"
                       style="color:#000000;fill:#7d0000;fill-opacity:1;fill-rule:nonzero;stroke:none;stroke-width:20;marker:none;visibility:visible;display:inline;overflow:visible;enable-background:accumulate" />
                  </g>
                  <g
                     id="g18313">
                    <path
                       style="color:#000000;fill:#550000;fill-opacity:1;fill-rule:nonzero;stroke:none;stroke-width:20;marker:none;visibility:visible;display:inline;overflow:visible;enable-background:accumulate"
                       d="m -117.38508,150.75113 c 2.57282,5.30643 2.83368,7.69729 5.54764,16.08012 0.96481,-1.36682 0.42456,-8.9864 -2.97482,-17.36656 -2.73447,-6.74105 -6.35166,-9.88928 -7.87927,-11.49728 -1.52761,-1.60803 2.33163,4.90446 5.30645,12.78372 z"
                       id="path18315"
                       inkscape:connector-curvature="0"
                       sodipodi:nodetypes="ccssc" />
                    <path
                       transform="matrix(0.26458334,0,0,0.26458334,-5e-5,-1025.9167)"
                       inkscape:connector-curvature="0"
                       id="path18317"
                       d="m -457.58068,4410.1999 c 6.91287,11.0678 29.33827,68.5176 31.48701,77.7571 2.14873,9.2396 3.65284,13.537 2.3636,6.876 -1.28924,-6.6611 -6.01645,-35.4541 -12.46265,-49.6358 -6.44619,-14.1816 -10.8565,-20.4867 -13.43498,-26.0734 -2.57848,-5.5867 -14.12579,-19.8127 -7.95298,-8.9239 z"
                       style="color:#000000;fill:#7d0000;fill-opacity:1;fill-rule:nonzero;stroke:none;stroke-width:20;marker:none;visibility:visible;display:inline;overflow:visible;enable-background:accumulate"
                       sodipodi:nodetypes="cssssc" />
                  </g>
                  <g
                     id="g18319">
                    <path
                       sodipodi:nodetypes="ccscc"
                       inkscape:connector-curvature="0"
                       id="path18321"
                       d="m -112.31492,146.27218 c 3.13758,5.41906 4.27204,14.99692 4.63014,14.37331 0.35811,-0.62362 0.44652,-5.7118 -0.94283,-10.94613 -1.38933,-5.23432 -4.5651,-8.0555 -6.32792,-9.60676 -2.26294,-1.258 0.30899,2.56154 2.64061,6.17958 z"
                       style="color:#000000;fill:#550000;fill-opacity:1;fill-rule:nonzero;stroke:none;stroke-width:20;marker:none;visibility:visible;display:inline;overflow:visible;enable-background:accumulate" />
                    <path
                       inkscape:connector-curvature="0"
                       id="path18323"
                       d="m -113.53326,142.98824 c 2.61518,2.89946 4.43444,8.52778 4.94611,10.51761 0.51167,1.9898 -0.28426,-4.09334 -1.47815,-5.91259 -1.19389,-1.81928 -3.46796,-4.60502 -3.46796,-4.60502 z"
                       style="color:#000000;fill:#7d0000;fill-opacity:1;fill-rule:nonzero;stroke:none;stroke-width:20;marker:none;visibility:visible;display:inline;overflow:visible;enable-background:accumulate" />
                  </g>
                </g>
              </g>
            </g>
          </g>
        </g>
      </g>
    </g>
    <g
       transform="matrix(3.624013,0,0,3.9529206,677.88046,-689.29002)"
       id="g18367"
       inkscape:export-filename="C:\Users\rober\Desktop\assets\ASSETS_2020\blood_effects_2\claw_slash\keyframes\claw_slash_09.png"
       inkscape:export-xdpi="90"
       inkscape:export-ydpi="90">
      <path
         sodipodi:nodetypes="ccccsssscsssscscc"
         id="path18369"
         d="m -93.294864,154.01752 c -0.244382,0.001 -0.37207,0.0662 -0.37207,0.0662 -0.321601,2.21102 2.573703,9.89735 3.819922,11.94758 0.18174,0.29898 0.379497,0.55052 0.587044,0.76893 0.472675,1.30714 1.368114,3.23564 1.486911,4.14875 0.05896,0.45316 0.447123,1.22455 0.73417,2.29175 0.212797,0.79116 0.378857,9.94212 0.285041,11.352 -0.08668,1.30263 -1.649597,2.7859 -1.857784,4.66611 -0.199735,1.80387 0.816247,4.40032 2.660706,4.40032 2.493193,-9.8e-4 2.729509,-2.59184 2.433827,-4.78239 -0.217547,-1.61165 -1.225769,-2.75656 -1.29852,-4.89683 -0.04479,-1.31737 -0.253925,-10.42344 -0.310714,-10.9467 -0.08285,-0.76342 -0.336834,-1.47891 -0.544818,-3.0197 -0.257623,-1.90853 -0.50806,-4.59967 -1.546571,-6.71076 -0.482217,-2.16368 -1.36008,-4.50567 -2.951758,-6.80474 -1.492438,-2.15574 -2.587749,-2.48372 -3.125391,-2.48047 z"
         style="color:#000000;fill:#f10000;fill-opacity:1;fill-rule:nonzero;stroke:none;stroke-width:20;marker:none;visibility:visible;display:inline;overflow:visible;enable-background:accumulate"
         inkscape:connector-curvature="0" />
      <path
         style="color:#000000;fill:#f10000;fill-opacity:1;fill-rule:nonzero;stroke:none;stroke-width:20;marker:none;visibility:visible;display:inline;overflow:visible;enable-background:accumulate"
         d="m -6.46875,4449.375 c -0.4966904,0.047 -0.7458617,0.2664 -0.625,0.75 0.64464,2.5785 0,4.0938 0,4.0938 0.64464,10.7435 9.6516777,36.1039 14.59375,47.0624 4.942069,10.9586 6.238169,9.4524 7.3125,15.4688 1.119852,4.4037 2.14328,7.7794 3.09375,10.375 0.07398,10.1028 2.743917,20.8799 4.875,20.4062 1.701233,-0.3779 2.486824,-9.2215 2.75,-18.125 2.632647,-9.4471 -0.121412,-35.4418 -1.342166,-18.6797 0.03061,-1.2332 2.246026,1.9305 2.217166,0.8673 -0.214677,-7.9505 -7.511401,-21.9131 -9.875,-29.2188 -2.363599,-7.3057 -7.3158707,-18.7023 -10.96875,-24.7188 -2.9679306,-4.8883 -9.8789376,-8.4817 -12.03125,-8.2812 z m 28.90625,99 c -0.811921,0.086 -1.15625,1.2812 -1.15625,1.2812 -1.215506,4.5582 2.110996,8.1896 2.71875,6.0626 0.607753,-2.1271 0.925634,-5.7533 -0.59375,-6.9688 -0.379846,-0.3039 -0.69811,-0.4035 -0.96875,-0.375 z m 1.03125,10.9688 c -1.134196,0.087 -1.59375,1.25 -1.59375,1.25 0,5.4697 1.534493,11.5387 2.75,8.5 1.215507,-3.0389 0.894383,-9.4149 -0.625,-9.7188 -0.189923,-0.038 -0.369222,-0.044 -0.53125,-0.031 z m 1.71875,26.8437 c -0.877652,0.038 -1.5,1.4375 -1.5,1.4375 -5.46978,4.5582 -0.89114,13.0818 1.84375,11.5625 2.73489,-1.5194 1.528006,-11.8383 0.3125,-12.75 -0.227908,-0.1709 -0.453715,-0.2587 -0.65625,-0.25 z m -1.375,16.125 c -3.173568,-0.097 -6.209736,1.6823 -7.40625,3.5625 -5.46978,10.6357 -0.91804,19.4408 6.375,20.6562 7.29304,1.2155 12.160523,-12.4569 7.90625,-19.75 -1.861245,-3.1905 -4.40667,-4.3934 -6.875,-4.4687 z"
         transform="matrix(0.26458334,0,0,0.26458334,-85.916825,-1025.9167)"
         id="path18371"
         inkscape:connector-curvature="0"
         sodipodi:nodetypes="cccsccccccsscccccccccccccccccccccc" />
      <path
         sodipodi:nodetypes="ccsssccsssccccc"
         id="path18373"
         d="m -80.594863,150.7681 c -0.71953,0 -1.008724,0.85989 -1.008724,0.85989 0.397959,2.33093 1.775477,4.73369 2.33164,7.16854 0.222858,0.97566 1.578846,1.39256 2.202847,3.68132 0.27603,1.01244 0.411983,3.13202 0.557997,4.55039 0.06324,0.6143 0.128366,17.41229 0.207577,17.61661 0.04192,3.72666 -1.906675,5.01549 -1.090288,6.43058 0.980192,1.69896 2.764982,1.40858 3.214847,-0.0535 0.784153,-2.54848 -1.241358,-3.19858 -0.783937,-6.53124 0.0447,-0.32567 0.06648,-17.10905 0.07025,-17.66048 0.01672,-2.44421 -0.320424,-6.52439 -0.584179,-7.08281 -0.02649,-0.22095 -0.05973,-0.44333 -0.09922,-0.66971 -0.852781,-4.88929 -2.786211,-6.93899 -4.150651,-7.96232 -0.341109,-0.25582 -0.628322,-0.34726 -0.868164,-0.34726 z"
         style="color:#000000;fill:#f10000;fill-opacity:1;fill-rule:nonzero;stroke:none;stroke-width:20;marker:none;visibility:visible;display:inline;overflow:visible;enable-background:accumulate"
         inkscape:connector-curvature="0" />
      <g
         id="g18375"
         transform="translate(116.81154,0)">
        <g
           id="g18377">
          <g
             id="g18379">
            <g
               id="g18381"
               transform="translate(-32.321084,8.3616734)">
              <g
                 transform="translate(-52.42126,0)"
                 id="g18383">
                <path
                   style="opacity:0;color:#000000;fill:#b80000;fill-opacity:1;fill-rule:nonzero;stroke:none;stroke-width:20;marker:none;visibility:visible;display:inline;overflow:visible;enable-background:accumulate"
                   d="m -128.2616,136.53044 25.69264,0 0,54.75629 -25.69264,0 z"
                   id="rect18385"
                   inkscape:connector-curvature="0"
                   sodipodi:nodetypes="ccccc" />
                <g
                   id="g18387">
                  <g
                     id="g18389">
                    <path
                       sodipodi:nodetypes="csssc"
                       inkscape:connector-curvature="0"
                       id="path18391"
                       d="m -124.62114,148.74112 c 4.82404,11.25607 6.03005,17.76855 6.67325,17.60773 0.64321,-0.16081 -0.98628,-9.3187 -2.17081,-12.62292 -1.52762,-4.26123 -4.66325,-8.76367 -6.19086,-10.37167 -1.52761,-1.60803 1.68842,5.38686 1.68842,5.38686 z"
                       style="color:#000000;fill:#550000;fill-opacity:1;fill-rule:nonzero;stroke:none;stroke-width:20;marker:none;visibility:visible;display:inline;overflow:visible;enable-background:accumulate" />
                    <path
                       transform="matrix(0.26458334,0,0,0.26458334,-5e-5,-1025.9167)"
                       inkscape:connector-curvature="0"
                       id="path18393"
                       d="m -468.85345,4436.6023 c 7.52056,13.537 18.90885,51.9993 18.04935,48.5614 -0.85949,-3.438 -3.65284,-23.851 -7.52056,-31.1567 -3.86772,-7.3056 -10.52879,-17.4047 -10.52879,-17.4047 z"
                       style="color:#000000;fill:#7d0000;fill-opacity:1;fill-rule:nonzero;stroke:none;stroke-width:20;marker:none;visibility:visible;display:inline;overflow:visible;enable-background:accumulate" />
                  </g>
                  <g
                     id="g18395">
                    <path
                       style="color:#000000;fill:#550000;fill-opacity:1;fill-rule:nonzero;stroke:none;stroke-width:20;marker:none;visibility:visible;display:inline;overflow:visible;enable-background:accumulate"
                       d="m -117.38508,150.75113 c 2.57282,5.30643 2.83368,7.69729 5.54764,16.08012 0.96481,-1.36682 0.42456,-8.9864 -2.97482,-17.36656 -2.73447,-6.74105 -6.35166,-9.88928 -7.87927,-11.49728 -1.52761,-1.60803 2.33163,4.90446 5.30645,12.78372 z"
                       id="path18397"
                       inkscape:connector-curvature="0"
                       sodipodi:nodetypes="ccssc" />
                    <path
                       transform="matrix(0.26458334,0,0,0.26458334,-5e-5,-1025.9167)"
                       inkscape:connector-curvature="0"
                       id="path18399"
                       d="m -457.58068,4410.1999 c 6.91287,11.0678 29.33827,68.5176 31.48701,77.7571 2.14873,9.2396 3.65284,13.537 2.3636,6.876 -1.28924,-6.6611 -6.01645,-35.4541 -12.46265,-49.6358 -6.44619,-14.1816 -10.8565,-20.4867 -13.43498,-26.0734 -2.57848,-5.5867 -14.12579,-19.8127 -7.95298,-8.9239 z"
                       style="color:#000000;fill:#7d0000;fill-opacity:1;fill-rule:nonzero;stroke:none;stroke-width:20;marker:none;visibility:visible;display:inline;overflow:visible;enable-background:accumulate"
                       sodipodi:nodetypes="cssssc" />
                  </g>
                  <g
                     id="g18401">
                    <path
                       sodipodi:nodetypes="ccscc"
                       inkscape:connector-curvature="0"
                       id="path18403"
                       d="m -112.31492,146.27218 c 3.13758,5.41906 4.27204,14.99692 4.63014,14.37331 0.35811,-0.62362 0.44652,-5.7118 -0.94283,-10.94613 -1.38933,-5.23432 -4.5651,-8.0555 -6.32792,-9.60676 -2.26294,-1.258 0.30899,2.56154 2.64061,6.17958 z"
                       style="color:#000000;fill:#550000;fill-opacity:1;fill-rule:nonzero;stroke:none;stroke-width:20;marker:none;visibility:visible;display:inline;overflow:visible;enable-background:accumulate" />
                    <path
                       inkscape:connector-curvature="0"
                       id="path18405"
                       d="m -113.53326,142.98824 c 2.61518,2.89946 4.43444,8.52778 4.94611,10.51761 0.51167,1.9898 -0.28426,-4.09334 -1.47815,-5.91259 -1.19389,-1.81928 -3.46796,-4.60502 -3.46796,-4.60502 z"
                       style="color:#000000;fill:#7d0000;fill-opacity:1;fill-rule:nonzero;stroke:none;stroke-width:20;marker:none;visibility:visible;display:inline;overflow:visible;enable-background:accumulate" />
                  </g>
                </g>
              </g>
            </g>
          </g>
        </g>
      </g>
    </g>
  </g>
</svg>
